<?xml version="1.0" encoding="UTF-8"?>
<!DOCTYPE svg PUBLIC "-//W3C//DTD SVG 1.1//EN"
    "http://www.w3.org/Graphics/SVG/1.1/DTD/svg11.dtd">
<svg xmlns="http://www.w3.org/2000/svg" xmlns:xlink="http://www.w3.org/1999/xlink" version="1.1" width="1000.0" height="666.6666666666666" font-size="1" viewBox="0 0 1000 667"><g><g stroke="rgb(0,0,0)" stroke-opacity="1.0" fill="rgb(0,0,0)" fill-opacity="0.0" stroke-width="1.0e-2" stroke-linecap="butt" stroke-linejoin="miter" font-size="1.0em" stroke-miterlimit="10.0"><g transform="matrix(166.66666666666666,0.0,0.0,166.66666666666666,83.33333333333337,83.33333333333331)"><g><g><g><g><g><g><g><g><g fill-opacity="0.0"><path d="M 4.5,3.5 h 1.0 " /></g><g stroke="rgb(255,165,0)" stroke-opacity="1.0" fill="rgb(255,165,0)" fill-opacity="1.0" stroke-width="1.0e-2"><path d="M 5.5,3.5 l -1.1102230246251565e-16,-1.0 h -1.0 l -1.1102230246251565e-16,1.0 h 1.0 Z" /></g><g stroke="rgb(255,255,255)" stroke-opacity="1.0" fill-opacity="0.0" stroke-width="2.0e-2"><path d="M 5.0,2.5 v 1.0 " /></g><g stroke="rgb(128,0,128)" stroke-opacity="1.0" fill="rgb(0,0,0)" fill-opacity="1.0" stroke-width="2.0e-2"><path d="M 5.3,3.0 c 0.0,-0.16568542494923802 -0.13431457505076191,-0.3 -0.29999999999999993 -0.3c -0.16568542494923802,-1.0144971206429875e-17 -0.3,0.13431457505076191 -0.3 0.2999999999999999c -2.028994241285975e-17,0.16568542494923802 0.1343145750507619,0.3 0.2999999999999999 0.3c 0.16568542494923802,3.043491361928963e-17 0.3,-0.1343145750507619 0.3 -0.2999999999999999Z" /></g><g stroke="rgb(255,255,255)" stroke-opacity="1.0" fill="rgb(255,255,255)" fill-opacity="1.0"><path d="M 4.872827661115134,3.1173062997827663 ZM 5.009322954380884,2.879073135409124 c 4.018826937002172e-2,0.0 5.358435916002896e-2,1.2671976828385226e-2 7.530774800868935e-2 1.629254163649529e-2c 5.792903692976104e-3,2.6068066618392467e-2 7.422157856625633e-3,4.055032585083273e-2 8.32729905865315e-3 5.5756698044895e-2c -4.091238233164374e-3,1.7016690803765386e-3 -7.85662563359884e-3,2.4257820419985514e-3 -1.1947863866763215e-2 2.172338884866039e-3c -9.413468501086169e-3,-3.113685734974656e-2 -2.4257784214337434e-2,-6.11875452570601e-2 -7.675597393193338e-2 -6.11875452570601e-2c -4.217958001448226e-2,0.0 -8.32729905865315e-2,4.3446777697320776e-2 -8.32729905865315e-2 0.10680666183924692c 0.0,4.779145546705286e-2 3.0412744388124545e-2,0.10897900072411296 8.761766835626357e-2 0.10897900072411296c 1.955104996379435e-2,0.0 4.3808834178131785e-2,-2.172338884866039e-3 5.6118754525706006e-2 -1.3758146270818247e-2v -5.5394641564083996e-2 c 0.0,-1.451846488052136e-2 -9.811730629978277e-3,-1.5858073859522082e-2 -2.968863142650253e-2 -1.7378711078928313e-2c -2.172338884866039e-3,-2.172338884866039e-3 -2.172338884866039e-3,-1.0861694424330194e-2 0.0 -1.3034033309196233e-2c 1.5930485155684286e-2,3.620564808110065e-4 3.276611151339609e-2,7.24112961622013e-4 4.4895003620564804e-2 7.24112961622013e-4c 1.4482259232440259e-2,0.0 2.353367125271542e-2,-3.620564808110065e-4 3.222302679217958e-2 -7.24112961622013e-4c 2.172338884866039e-3,2.172338884866039e-3 2.172338884866039e-3,1.0861694424330194e-2 0.0 1.3034033309196233e-2c -1.0499637943519189e-2,1.0861694424330196e-3 -1.66545981173063e-2,4.634322954380883e-3 -1.66545981173063e-2 1.7378711078928313e-2v 4.1998551774076756e-2 c 0.0,3.9826212889210715e-3 1.8102824040550324e-3,6.8790731354091235e-3 5.792903692976104e-3 1.0137581462708182e-2c -2.4619840695148443e-2,2.0999275887038378e-2 -5.8291093410572044e-2,3.005068790731354e-2 -0.10101375814627081 3.005068790731354e-2c -6.915278783490224e-2,0.0 -0.11404779145546705,-4.967414916727009e-2 -0.11404779145546705 -0.11477190441708905c 0.0,-7.965242577842142e-2 6.263577118030413e-2,-0.1270818247646633 0.12309920347574221 -0.1270818247646633h 1.3877787807814457e-17 Z" /></g></g><g fill-opacity="0.0"><path d="M 4.5,2.5 h 1.0 " /></g><g stroke="rgb(255,165,0)" stroke-opacity="1.0" fill="rgb(255,165,0)" fill-opacity="1.0" stroke-width="1.0e-2"><path d="M 5.5,2.5 l -1.1102230246251565e-16,-1.0 h -1.0 l -1.1102230246251565e-16,1.0 h 1.0 Z" /></g><g stroke="rgb(255,255,255)" stroke-opacity="1.0" fill-opacity="0.0" stroke-width="2.0e-2"><path d="M 5.0,1.5 v 1.0 " /></g><g stroke="rgb(128,0,128)" stroke-opacity="1.0" fill="rgb(0,0,0)" fill-opacity="1.0" stroke-width="2.0e-2"><path d="M 5.3,2.0 c 0.0,-0.16568542494923802 -0.13431457505076191,-0.3 -0.29999999999999993 -0.3c -0.16568542494923802,-1.0144971206429875e-17 -0.3,0.13431457505076191 -0.3 0.2999999999999999c -2.028994241285975e-17,0.16568542494923802 0.1343145750507619,0.3 0.2999999999999999 0.3c 0.16568542494923802,3.043491361928963e-17 0.3,-0.1343145750507619 0.3 -0.2999999999999999Z" /></g><g stroke="rgb(255,255,255)" stroke-opacity="1.0" fill="rgb(255,255,255)" fill-opacity="1.0"><path d="M 4.8304670528602465,2.1171252715423607 ZM 4.932929036929761,2.0001810282404056 h -3.367125271542361e-2 v 7.277335264301231e-2 c 0.0,3.005068790731354e-2 6.1549601737871116e-3,3.186097031136857e-2 3.149891383055757e-2 3.294713975380159e-2c 2.172338884866039e-3,2.172338884866039e-3 2.172338884866039e-3,9.775524981897175e-3 0.0 1.1947863866763215e-2c -1.267197682838523e-2,-3.620564808110065e-4 -3.041274438812455e-2,-7.24112961622013e-4 -4.6705286024619846e-2 -7.24112961622013e-4c -1.6292541636495295e-2,0.0 -3.4395365677045625e-2,3.620564808110065e-4 -4.706734250543085e-2 7.24112961622013e-4c -2.172338884866039e-3,-2.172338884866039e-3 -2.172338884866039e-3,-9.775524981897175e-3 0.0 -1.1947863866763215e-2c 2.534395365677046e-2,-1.0861694424330196e-3 3.149891383055757e-2,-2.896451846488052e-3 3.149891383055757e-2 -3.294713975380159e-2v -0.1451846488052136 c 0.0,-3.005068790731354e-2 -6.1549601737871116e-3,-3.186097031136857e-2 -3.149891383055757e-2 -3.294713975380159e-2c -2.172338884866039e-3,-2.172338884866039e-3 -2.172338884866039e-3,-9.775524981897175e-3 0.0 -1.1947863866763215e-2c 1.4482259232440262e-2,3.620564808110065e-4 3.5119478638667635e-2,7.24112961622013e-4 4.6705286024619846e-2 7.24112961622013e-4h 9.243301955104997e-2 c 8.942795076031861e-3,0.0 1.0680666183924693e-2,-2.1722519913106446e-4 1.701665459811731e-2 -1.448225923244026e-3c 8.68942795076032e-4,0.0 1.3034069514844318e-3,2.534438812454743e-4 1.4482259232440262e-3 1.0861694424330196e-3c 5.068863142650254e-4,2.751622013034033e-3 5.973931933381608e-3,3.7653874004344674e-2 7.856625633598843e-3 5.249818971759594e-2c -2.8964518464880524e-3,1.0861694424330196e-3 -6.879073135409124e-3,1.8102824040550324e-3 -1.1223750905141203e-2 1.8102824040550324e-3c -7.965242577842145e-3,-2.4981897175959448e-2 -1.701665459811731e-2,-3.946415640839971e-2 -5.5394641564084e-2 -3.946415640839971e-2h -1.6292541636495295e-2 c -1.593048515568429e-2,0.0 -2.0275162925416368e-2,3.6205648081100647e-3 -2.0275162925416368e-2 2.3171614771904415e-2v 6.517016654598116e-2 h 3.367125271542361e-2 c 3.0774800868935557e-2,0.0 3.186097031136858e-2,-4.706734250543084e-3 3.29471397538016e-2 -2.4619840695148443e-2c 2.172338884866039e-3,-2.172338884866039e-3 9.775524981897177e-3,-2.172338884866039e-3 1.1947863866763216e-2 0.0c -3.6205648081100655e-4,9.413468501086169e-3 -7.241129616220131e-4,1.900796524257784e-2 -7.241129616220131e-4 3.113685734974656e-2c 0.0,1.2418537291817522e-2 3.6205648081100655e-4,2.280955829109341e-2 7.241129616220131e-4 3.186097031136857e-2c -2.172338884866039e-3,2.172338884866039e-3 -9.775524981897177e-3,2.172338884866039e-3 -1.1947863866763216e-2 0.0c -1.0861694424330196e-3,-1.629254163649529e-2 -2.172338884866039e-3,-2.4619840695148443e-2 -3.29471397538016e-2 -2.4619840695148443e-2h -6.938893903907228e-18 ZM 5.006064446053585,2.1171252715423607 ZM 5.107078204199855,2.028421433743664 l 6.5170166545981175e-3,-4.163649529326575e-2 h -4.091238233164374e-2 l -6.879073135409124e-3,4.163649529326575e-2 h 4.1274438812454746e-2 h -6.938893903907228e-18 ZM 5.107078204199855,2.028421433743664 ZM 5.127353367125272,1.9867849384503982 l -6.879073135409124e-3,4.163649529326575e-2 h 3.4395365677045625e-2 l -2.534395365677046e-3,1.9188993482983346e-2 h -3.403330919623462e-2 l -1.0861694424330196e-2,6.444605358435916e-2 h -1.3758146270818249e-2 l 9.775524981897177e-3,-6.444605358435916e-2 h -4.0550325850832736e-2 l -1.0499637943519189e-2,6.444605358435916e-2 h -1.3396089790007242e-2 l 1.0137581462708184e-2,-6.444605358435916e-2 h -3.367125271542361e-2 l 2.8964518464880524e-3,-1.9188993482983346e-2 h 3.403330919623462e-2 l 6.5170166545981175e-3,-4.163649529326575e-2 h -3.367125271542361e-2 l 2.8964518464880524e-3,-1.9188993482983346e-2 h 3.367125271542361e-2 l 1.0499637943519189e-2,-6.480811006517016e-2 h 1.3758146270818249e-2 l -1.0861694424330196e-2,6.480811006517016e-2 h 4.1274438812454746e-2 l 1.0137581462708184e-2,-6.480811006517016e-2 h 1.3758146270818249e-2 l -1.0499637943519189e-2,6.480811006517016e-2 h 3.475742215785663e-2 l -2.8964518464880524e-3,1.9188993482983346e-2 h -3.4395365677045625e-2 l -1.3877787807814457e-17,-1.3877787807814457e-17 Z" /></g></g><g fill-opacity="0.0"><path d="M 4.5,1.5 h 1.0 " /></g><g stroke="rgb(255,165,0)" stroke-opacity="1.0" fill="rgb(255,165,0)" fill-opacity="1.0" stroke-width="1.0e-2"><path d="M 5.5,1.5 l -1.1102230246251565e-16,-1.0 h -1.0 l -1.1102230246251565e-16,1.0 h 1.0 Z" /></g><g stroke="rgb(255,255,255)" stroke-opacity="1.0" fill-opacity="0.0" stroke-width="2.0e-2"><path d="M 5.0,0.5 v 1.0 " /></g><g stroke="rgb(128,0,128)" stroke-opacity="1.0" fill="rgb(0,0,0)" fill-opacity="1.0" stroke-width="2.0e-2"><path d="M 5.3,1.0 c 0.0,-0.16568542494923802 -0.13431457505076191,-0.3 -0.29999999999999993 -0.3c -0.16568542494923802,-1.0144971206429875e-17 -0.3,0.13431457505076191 -0.3 0.2999999999999999c -2.028994241285975e-17,0.16568542494923802 0.1343145750507619,0.3 0.2999999999999999 0.3c 0.16568542494923802,3.043491361928963e-17 0.3,-0.1343145750507619 0.3 -0.2999999999999999Z" /></g><g stroke="rgb(255,255,255)" stroke-opacity="1.0" fill="rgb(255,255,255)" fill-opacity="1.0"><path d="M 4.911567704561912,1.1171252715423605 ZM 5.014029688631426,1.0001810282404056 h -3.367125271542361e-2 v 7.277335264301231e-2 c 0.0,3.005068790731354e-2 6.1549601737871116e-3,3.186097031136857e-2 3.149891383055757e-2 3.294713975380159e-2c 2.172338884866039e-3,2.172338884866039e-3 2.172338884866039e-3,9.775524981897175e-3 0.0 1.1947863866763215e-2c -1.267197682838523e-2,-3.620564808110065e-4 -3.041274438812455e-2,-7.24112961622013e-4 -4.6705286024619846e-2 -7.24112961622013e-4c -1.6292541636495295e-2,0.0 -3.4395365677045625e-2,3.620564808110065e-4 -4.706734250543085e-2 7.24112961622013e-4c -2.172338884866039e-3,-2.172338884866039e-3 -2.172338884866039e-3,-9.775524981897175e-3 0.0 -1.1947863866763215e-2c 2.534395365677046e-2,-1.0861694424330196e-3 3.149891383055757e-2,-2.896451846488052e-3 3.149891383055757e-2 -3.294713975380159e-2v -0.1451846488052136 c 0.0,-3.005068790731354e-2 -6.1549601737871116e-3,-3.186097031136857e-2 -3.149891383055757e-2 -3.294713975380159e-2c -2.172338884866039e-3,-2.172338884866039e-3 -2.172338884866039e-3,-9.775524981897175e-3 0.0 -1.1947863866763215e-2c 1.4482259232440262e-2,3.620564808110065e-4 3.5119478638667635e-2,7.24112961622013e-4 4.6705286024619846e-2 7.24112961622013e-4h 9.243301955104997e-2 c 8.942795076031861e-3,0.0 1.0680666183924693e-2,-2.1722519913106446e-4 1.701665459811731e-2 -1.448225923244026e-3c 8.68942795076032e-4,0.0 1.3034069514844318e-3,2.534438812454743e-4 1.4482259232440262e-3 1.0861694424330196e-3c 5.068863142650254e-4,2.751622013034033e-3 5.973931933381608e-3,3.7653874004344674e-2 7.856625633598843e-3 5.249818971759594e-2c -2.8964518464880524e-3,1.0861694424330196e-3 -6.879073135409124e-3,1.8102824040550324e-3 -1.1223750905141203e-2 1.8102824040550324e-3c -7.965242577842145e-3,-2.4981897175959448e-2 -1.701665459811731e-2,-3.946415640839971e-2 -5.5394641564084e-2 -3.946415640839971e-2h -1.6292541636495295e-2 c -1.593048515568429e-2,0.0 -2.0275162925416368e-2,3.6205648081100647e-3 -2.0275162925416368e-2 2.3171614771904415e-2v 6.517016654598116e-2 h 3.367125271542361e-2 c 3.0774800868935557e-2,0.0 3.186097031136858e-2,-4.706734250543084e-3 3.29471397538016e-2 -2.4619840695148443e-2c 2.172338884866039e-3,-2.172338884866039e-3 9.775524981897177e-3,-2.172338884866039e-3 1.1947863866763216e-2 0.0c -3.6205648081100655e-4,9.413468501086169e-3 -7.241129616220131e-4,1.900796524257784e-2 -7.241129616220131e-4 3.113685734974656e-2c 0.0,1.2418537291817522e-2 3.6205648081100655e-4,2.280955829109341e-2 7.241129616220131e-4 3.186097031136857e-2c -2.172338884866039e-3,2.172338884866039e-3 -9.775524981897177e-3,2.172338884866039e-3 -1.1947863866763216e-2 0.0c -1.0861694424330196e-3,-1.629254163649529e-2 -2.172338884866039e-3,-2.4619840695148443e-2 -3.29471397538016e-2 -2.4619840695148443e-2h -6.938893903907228e-18 Z" /></g></g><g fill-opacity="0.0"><path d="M 4.5,0.5 h 1.0 " /></g><g stroke="rgb(255,165,0)" stroke-opacity="1.0" fill="rgb(255,165,0)" fill-opacity="1.0" stroke-width="1.0e-2"><path d="M 5.5,0.5 l -1.1102230246251565e-16,-1.0 h -1.0 l -1.1102230246251565e-16,1.0 h 1.0 Z" /></g><g stroke="rgb(255,255,255)" stroke-opacity="1.0" fill-opacity="0.0" stroke-width="2.0e-2"><path d="M 5.0,-0.5 v 1.0 " /></g><g stroke="rgb(128,0,128)" stroke-opacity="1.0" fill="rgb(0,0,0)" fill-opacity="1.0" stroke-width="2.0e-2"><path d="M 5.3,5.551115123125783e-17 c 0.0,-0.16568542494923802 -0.13431457505076191,-0.3 -0.29999999999999993 -0.3c -0.16568542494923802,-1.0144971206429875e-17 -0.3,0.13431457505076191 -0.3 0.2999999999999999c -2.028994241285975e-17,0.16568542494923802 0.1343145750507619,0.3 0.2999999999999999 0.3c 0.16568542494923802,3.043491361928963e-17 0.3,-0.1343145750507619 0.3 -0.2999999999999999Z" /></g><g stroke="rgb(255,255,255)" stroke-opacity="1.0" fill="rgb(255,255,255)" fill-opacity="1.0"><path d="M 4.90197320782042,0.11712527154236059 ZM 5.003711078928313,-1.3577118030412741e-2 c 3.0774800868935553e-2,0.0 3.186097031136857e-2,-4.706734250543084e-3 3.294713975380159e-2 -2.4619840695148443e-2c 2.172338884866039e-3,-2.172338884866039e-3 9.775524981897175e-3,-2.172338884866039e-3 1.1947863866763215e-2 0.0c -3.620564808110065e-4,8.689355539464157e-3 -7.24112961622013e-4,2.0999275887038378e-2 -7.24112961622013e-4 3.113685734974656e-2c 0.0,1.2418537291817522e-2 3.620564808110065e-4,2.2447501810282402e-2 7.24112961622013e-4 3.186097031136857e-2c -2.172338884866039e-3,2.172338884866039e-3 -9.775524981897175e-3,2.172338884866039e-3 -1.1947863866763215e-2 0.0c -1.0861694424330196e-3,-1.629254163649529e-2 -2.172338884866039e-3,-2.4619840695148443e-2 -3.294713975380159e-2 -2.4619840695148443e-2h -3.294713975380159e-2 v 8.001448225923244e-2 c 0.0,1.7016654598117305e-2 5.068790731354091e-3,2.280955829109341e-2 2.0275162925416364e-2 2.280955829109341e-2h 4.1998551774076756e-2 c 2.7516292541636494e-2,0.0 4.018826937002172e-2,-2.1361332367849383e-2 4.742939898624185e-2 -4.742939898624185e-2c 4.742939898624185e-3,-1.1585807385952208e-3 8.90658942795076e-3,-3.25848660391021e-4 1.2671976828385226e-2 1.8102824040550324e-3c -2.896451846488052e-3,1.8464880521361332e-2 -8.32729905865315e-3,4.236060825488776e-2 -1.339608979000724e-2 6.046343229543808e-2c 0.0,0.0 -2.8964518464880518e-2,-7.24112961622013e-4 -4.634322954380883e-2 -7.24112961622013e-4h -7.78421433743664e-2 c -1.1947863866763215e-2,0.0 -3.36712527154236e-2,3.620564808110065e-4 -4.706734250543084e-2 7.24112961622013e-4c -2.172338884866039e-3,-2.172338884866039e-3 -2.172338884866039e-3,-9.775524981897175e-3 0.0 -1.1947863866763215e-2c 2.5343953656770453e-2,-1.0861694424330196e-3 3.1498913830557564e-2,-2.896451846488052e-3 3.1498913830557564e-2 -3.294713975380159e-2v -0.1451846488052136 c 0.0,-3.005068790731354e-2 -6.154960173787111e-3,-3.186097031136857e-2 -3.1498913830557564e-2 -3.294713975380159e-2c -2.172338884866039e-3,-2.172338884866039e-3 -2.172338884866039e-3,-9.775524981897175e-3 0.0 -1.1947863866763215e-2c 1.4482259232440259e-2,3.620564808110065e-4 3.566256335988414e-2,7.24112961622013e-4 4.670528602461984e-2 7.24112961622013e-4h 9.232440260680666e-2 c 8.689355539464157e-3,0.0 1.1585807385952208e-2,-3.620564808110065e-4 1.774076755973932e-2 -1.448225923244026e-3c 1.0861694424330196e-3,0.0 1.448225923244026e-3,3.620564808110065e-4 1.448225923244026e-3 1.0861694424330196e-3c 7.24112961622013e-4,2.896451846488052e-3 6.154960173787111e-3,3.7653874004344674e-2 7.965242577842143e-3 5.249818971759594e-2c -3.548149891383055e-3,1.7016690803765386e-3 -7.458363504706734e-3,2.461980448950036e-3 -1.1947863866763215e-2 1.8102824040550324e-3c -7.965242577842143e-3,-2.4981897175959448e-2 -1.3758146270818247e-2,-3.946415640839971e-2 -4.091238233164373e-2 -3.946415640839971e-2h -2.7154236060825485e-2 c -1.955104996379435e-2,0.0 -2.389572773352643e-2,7.241129616220129e-3 -2.389572773352643e-2 2.3171614771904415e-2v 6.517016654598116e-2 h 3.294713975380159e-2 l -2.0816681711721685e-17,1.3877787807814457e-17 Z" /></g></g><g><g><g><g fill-opacity="0.0"><path d="M 3.5,3.5 h 1.0 " /></g><g stroke="rgb(255,165,0)" stroke-opacity="1.0" fill="rgb(255,165,0)" fill-opacity="1.0" stroke-width="1.0e-2"><path d="M 4.5,3.5 l -1.1102230246251565e-16,-1.0 h -1.0 l -1.1102230246251565e-16,1.0 h 1.0 Z" /></g><g stroke="rgb(255,255,255)" stroke-opacity="1.0" fill-opacity="0.0" stroke-width="2.0e-2"><path d="M 4.0,2.5 v 1.0 " /></g><g stroke="rgb(128,0,128)" stroke-opacity="1.0" fill="rgb(0,0,0)" fill-opacity="1.0" stroke-width="2.0e-2"><path d="M 4.3,3.0 c 0.0,-0.16568542494923802 -0.13431457505076191,-0.3 -0.29999999999999993 -0.3c -0.16568542494923802,-1.0144971206429875e-17 -0.3,0.13431457505076191 -0.3 0.2999999999999999c -2.028994241285975e-17,0.16568542494923802 0.1343145750507619,0.3 0.2999999999999999 0.3c 0.16568542494923802,3.043491361928963e-17 0.3,-0.1343145750507619 0.3 -0.2999999999999999Z" /></g><g stroke="rgb(255,255,255)" stroke-opacity="1.0" fill="rgb(255,255,255)" fill-opacity="1.0"><path d="M 3.878258508327299,3.1167632150615496 ZM 3.947411296162201,3.086350470673425 c 0.0,1.1585807385952208e-2 3.982621288921072e-3,1.8826937002172337e-2 3.946415640839971e-2 1.8826937002172337e-2c 5.104996379435192e-2,0.0 9.485879797248371e-2,-1.8102824040550324e-2 9.485879797248371e-2 -9.123823316437364e-2c 0.0,-5.5756698044895e-2 -2.5706010137581465e-2,-0.11911658218682114 -0.10391020999275888 -0.11911658218682114c -1.7740767559739322e-2,0.0 -3.041274438812455e-2,5.068790731354091e-3 -3.041274438812455e-2 1.774076755973932e-2v 0.1737871107892831 l -3.469446951953614e-18,2.7755575615628914e-17 ZM 3.947411296162201,3.086350470673425 ZM 3.931842867487328,2.8832367849384504 c 1.4120202751629255e-2,0.0 3.403330919623462e-2,-7.24112961622013e-4 5.973931933381608e-2 -7.24112961622013e-4c 6.951484431571325e-2,0.0 0.12490948587979726,5.5394641564083996e-2 0.12490948587979726 0.1227371469949312c 0.0,8.906589427950759e-2 -6.734250543084722e-2,0.11223750905141201 -0.11839246922519914 0.11223750905141201c -3.729181752353367e-2,0.0 -5.249818971759595e-2,-7.24112961622013e-4 -6.58942795076032e-2 -7.24112961622013e-4c -1.3649529326574948e-2,0.0 -3.29471397538016e-2,3.620564808110065e-4 -4.706734250543085e-2 7.24112961622013e-4c -2.172338884866039e-3,-2.172338884866039e-3 -2.172338884866039e-3,-9.775524981897175e-3 0.0 -1.1947863866763215e-2c 2.534395365677046e-2,-1.0861694424330196e-3 3.149891383055757e-2,-2.896451846488052e-3 3.149891383055757e-2 -3.294713975380159e-2v -0.1451846488052136 c 0.0,-3.005068790731354e-2 -6.1549601737871116e-3,-3.186097031136857e-2 -3.149891383055757e-2 -3.294713975380159e-2c -2.172338884866039e-3,-2.172338884866039e-3 -2.172338884866039e-3,-9.775524981897175e-3 0.0 -1.1947863866763215e-2c 1.4482259232440262e-2,3.620564808110065e-4 3.377986965966691e-2,7.24112961622013e-4 4.6705286024619846e-2 7.24112961622013e-4l -1.3877787807814457e-17,-9.75781955236954e-18 Z" /></g></g><g fill-opacity="0.0"><path d="M 3.5,2.5 h 1.0 " /></g><g stroke="rgb(255,165,0)" stroke-opacity="1.0" fill="rgb(255,165,0)" fill-opacity="1.0" stroke-width="1.0e-2"><path d="M 4.5,2.5 l -1.1102230246251565e-16,-1.0 h -1.0 l -1.1102230246251565e-16,1.0 h 1.0 Z" /></g><g stroke="rgb(255,255,255)" stroke-opacity="1.0" fill-opacity="0.0" stroke-width="2.0e-2"><path d="M 4.0,1.5 v 1.0 " /></g><g stroke="rgb(128,0,128)" stroke-opacity="1.0" fill="rgb(0,0,0)" fill-opacity="1.0" stroke-width="2.0e-2"><path d="M 4.3,2.0 c 0.0,-0.16568542494923802 -0.13431457505076191,-0.3 -0.29999999999999993 -0.3c -0.16568542494923802,-1.0144971206429875e-17 -0.3,0.13431457505076191 -0.3 0.2999999999999999c -2.028994241285975e-17,0.16568542494923802 0.1343145750507619,0.3 0.2999999999999999 0.3c 0.16568542494923802,3.043491361928963e-17 0.3,-0.1343145750507619 0.3 -0.2999999999999999Z" /></g><g stroke="rgb(255,255,255)" stroke-opacity="1.0" fill="rgb(255,255,255)" fill-opacity="1.0"><path d="M 3.797067342505431,2.1173062997827663 ZM 3.9263215061549603,2.120926864590876 c -7.78421433743664e-2,0.0 -0.11585807385952207,-5.2932657494569144e-2 -0.11585807385952207 -0.11585807385952207c 0.0,-3.7762490948587975e-2 1.4337436640115858e-2,-7.320782041998551e-2 3.837798696596669e-2 -9.52208544532947e-2c 2.1361332367849383e-2,-1.955104996379435e-2 4.706734250543084e-2,-3.0774800868935553e-2 7.78421433743664e-2 -3.0774800868935553e-2c 4.4532947139753795e-2,0.0 6.082548877624909e-2,1.4482259232440259e-2 7.929036929761042e-2 1.629254163649529e-2c 3.6205648081100647e-3,1.9913106444605356e-2 6.154960173787111e-3,3.7291817523533666e-2 7.965242577842143e-3 5.6118754525706006e-2c -4.091238233164374e-3,2.172338884866039e-3 -7.603186097031136e-3,3.2585083272990583e-3 -1.1947863866763215e-2 1.8102824040550324e-3c -9.413468501086169e-3,-3.113685734974656e-2 -2.9326574945691526e-2,-6.082548877624909e-2 -7.929036929761042e-2 -6.082548877624909e-2c -1.8826937002172337e-2,0.0 -3.982621288921071e-2,1.0137581462708182e-2 -5.7784214337436635e-2 3.222302679217958e-2c -1.3215061549601738e-2,1.625633598841419e-2 -2.1506154960173784e-2,4.225199131064446e-2 -2.1506154960173784e-2 7.349746560463431e-2c 0.0,5.286024619840695e-2 3.381607530774801e-2,0.10789283128167994 8.254887762490948e-2 0.10789283128167994c 3.36712527154236e-2,0.0 5.8291093410572044e-2,-1.1223750905141201e-2 8.399710354815351e-2 -3.946415640839971e-2c 3.9826212889210715e-3,0.0 6.517016654598117e-3,2.172338884866039e-3 8.32729905865315e-3 5.430847212165097e-3c -2.4619840695148443e-2,3.222302679217958e-2 -5.6842867487328017e-2,4.887762490948588e-2 -9.196234612599564e-2 4.887762490948588e-2l -5.551115123125783e-17,-2.0816681711721685e-17 ZM 4.030955829109341,2.1173062997827663 ZM 4.131969587255612,2.0286024619840695 l 6.517016654598117e-3,-4.163649529326575e-2 h -4.091238233164373e-2 l -6.8790731354091235e-3,4.163649529326575e-2 h 4.127443881245474e-2 h -6.938893903907228e-18 ZM 4.131969587255612,2.0286024619840695 ZM 4.152244750181028,1.9869659666908037 l -6.8790731354091235e-3,4.163649529326575e-2 h 3.439536567704562e-2 l -2.5343953656770456e-3,1.9188993482983346e-2 h -3.403330919623461e-2 l -1.0861694424330194e-2,6.444605358435916e-2 h -1.3758146270818247e-2 l 9.775524981897175e-3,-6.444605358435916e-2 h -4.055032585083273e-2 l -1.0499637943519189e-2,6.444605358435916e-2 h -1.339608979000724e-2 l 1.0137581462708182e-2,-6.444605358435916e-2 h -3.36712527154236e-2 l 2.896451846488052e-3,-1.9188993482983346e-2 h 3.403330919623461e-2 l 6.517016654598117e-3,-4.163649529326575e-2 h -3.36712527154236e-2 l 2.896451846488052e-3,-1.9188993482983346e-2 h 3.36712527154236e-2 l 1.0499637943519189e-2,-6.480811006517016e-2 h 1.3758146270818247e-2 l -1.0861694424330194e-2,6.480811006517016e-2 h 4.127443881245474e-2 l 1.0137581462708182e-2,-6.480811006517016e-2 h 1.3758146270818247e-2 l -1.0499637943519189e-2,6.480811006517016e-2 h 3.475742215785663e-2 l -2.896451846488052e-3,1.9188993482983346e-2 h -3.439536567704562e-2 l -6.938893903907228e-18,-1.3877787807814457e-17 Z" /></g></g><g fill-opacity="0.0"><path d="M 3.5,1.5 h 1.0 " /></g><g stroke="rgb(255,165,0)" stroke-opacity="1.0" fill="rgb(255,165,0)" fill-opacity="1.0" stroke-width="1.0e-2"><path d="M 4.5,1.5 l -1.1102230246251565e-16,-1.0 h -1.0 l -1.1102230246251565e-16,1.0 h 1.0 Z" /></g><g stroke="rgb(255,255,255)" stroke-opacity="1.0" fill-opacity="0.0" stroke-width="2.0e-2"><path d="M 4.0,0.5 v 1.0 " /></g><g stroke="rgb(128,0,128)" stroke-opacity="1.0" fill="rgb(0,0,0)" fill-opacity="1.0" stroke-width="2.0e-2"><path d="M 4.3,1.0 c 0.0,-0.16568542494923802 -0.13431457505076191,-0.3 -0.29999999999999993 -0.3c -0.16568542494923802,-1.0144971206429875e-17 -0.3,0.13431457505076191 -0.3 0.2999999999999999c -2.028994241285975e-17,0.16568542494923802 0.1343145750507619,0.3 0.2999999999999999 0.3c 0.16568542494923802,3.043491361928963e-17 0.3,-0.1343145750507619 0.3 -0.2999999999999999Z" /></g><g stroke="rgb(255,255,255)" stroke-opacity="1.0" fill="rgb(255,255,255)" fill-opacity="1.0"><path d="M 3.8826937002172337,1.117306299782766 ZM 4.011947863866763,1.120926864590876 c -7.78421433743664e-2,0.0 -0.11585807385952207,-5.2932657494569144e-2 -0.11585807385952207 -0.11585807385952207c 0.0,-3.7762490948587975e-2 1.4337436640115858e-2,-7.320782041998551e-2 3.837798696596669e-2 -9.52208544532947e-2c 2.1361332367849383e-2,-1.955104996379435e-2 4.706734250543084e-2,-3.0774800868935553e-2 7.78421433743664e-2 -3.0774800868935553e-2c 4.4532947139753795e-2,0.0 6.082548877624909e-2,1.4482259232440259e-2 7.929036929761042e-2 1.629254163649529e-2c 3.6205648081100647e-3,1.9913106444605356e-2 6.154960173787111e-3,3.7291817523533666e-2 7.965242577842143e-3 5.6118754525706006e-2c -4.091238233164374e-3,2.172338884866039e-3 -7.603186097031136e-3,3.2585083272990583e-3 -1.1947863866763215e-2 1.8102824040550324e-3c -9.413468501086169e-3,-3.113685734974656e-2 -2.9326574945691526e-2,-6.082548877624909e-2 -7.929036929761042e-2 -6.082548877624909e-2c -1.8826937002172337e-2,0.0 -3.982621288921071e-2,1.0137581462708182e-2 -5.7784214337436635e-2 3.222302679217958e-2c -1.3215061549601738e-2,1.625633598841419e-2 -2.1506154960173784e-2,4.225199131064446e-2 -2.1506154960173784e-2 7.349746560463431e-2c 0.0,5.286024619840695e-2 3.381607530774801e-2,0.10789283128167994 8.254887762490948e-2 0.10789283128167994c 3.36712527154236e-2,0.0 5.8291093410572044e-2,-1.1223750905141201e-2 8.399710354815351e-2 -3.946415640839971e-2c 3.9826212889210715e-3,0.0 6.517016654598117e-3,2.172338884866039e-3 8.32729905865315e-3 5.430847212165097e-3c -2.4619840695148443e-2,3.222302679217958e-2 -5.6842867487328017e-2,4.887762490948588e-2 -9.196234612599564e-2 4.887762490948588e-2l -5.551115123125783e-17,-2.0816681711721685e-17 Z" /></g></g><g fill-opacity="0.0"><path d="M 3.5,0.5 h 1.0 " /></g><g stroke="rgb(255,165,0)" stroke-opacity="1.0" fill="rgb(255,165,0)" fill-opacity="1.0" stroke-width="1.0e-2"><path d="M 4.5,0.5 l -1.1102230246251565e-16,-1.0 h -1.0 l -1.1102230246251565e-16,1.0 h 1.0 Z" /></g><g stroke="rgb(255,255,255)" stroke-opacity="1.0" fill-opacity="0.0" stroke-width="2.0e-2"><path d="M 4.0,-0.5 v 1.0 " /></g><g stroke="rgb(128,0,128)" stroke-opacity="1.0" fill="rgb(0,0,0)" fill-opacity="1.0" stroke-width="2.0e-2"><path d="M 4.3,5.551115123125783e-17 c 0.0,-0.16568542494923802 -0.13431457505076191,-0.3 -0.29999999999999993 -0.3c -0.16568542494923802,-1.0144971206429875e-17 -0.3,0.13431457505076191 -0.3 0.2999999999999999c -2.028994241285975e-17,0.16568542494923802 0.1343145750507619,0.3 0.2999999999999999 0.3c 0.16568542494923802,3.043491361928963e-17 0.3,-0.1343145750507619 0.3 -0.2999999999999999Z" /></g><g stroke="rgb(255,255,255)" stroke-opacity="1.0" fill="rgb(255,255,255)" fill-opacity="1.0"><path d="M 3.89835264301231,0.11676321506154957 ZM 3.967505430847212,-8.2367849384504e-2 v 6.66183924692252e-2 h 2.6792179580014484e-2 c 3.0050687907313543e-2,0.0 5.141202027516293e-2,-1.0861694424330194e-2 5.141202027516293e-2 -4.163649529326575e-2c 0.0,-3.6929761042722664e-2 -2.643012309920348e-2,-4.779145546705286e-2 -4.6705286024619846e-2 -4.779145546705286e-2c -3.149891383055757e-2,0.0 -3.149891383055757e-2,3.6205648081100647e-3 -3.149891383055757e-2 2.280955829109341e-2v -3.469446951953614e-18 ZM 3.967505430847212,-8.2367849384504e-2 ZM 3.967505430847212,-3.4395365677045847e-3 v 7.748008689355539e-2 c 0.0,2.2085445329471397e-2 4.706734250543085e-3,3.1498913830557564e-2 3.0050687907313543e-2 3.1498913830557564e-2c 5.5032585083272995e-2,0.0 6.517016654598118e-2,-2.2085445329471397e-2 6.517016654598118e-2 -4.851556842867487e-2c 0.0,-3.258508327299058e-2 -2.0637219406227373e-2,-6.046343229543808e-2 -7.023895727733527e-2 -6.046343229543808e-2h -2.498189717595945e-2 l -6.938893903907228e-18,-6.938893903907228e-18 ZM 3.967505430847212,-3.4395365677045847e-3 ZM 3.951937002172339,-0.1167632150615496 c 1.3034033309196235e-2,0.0 3.258508327299059e-2,-7.24112961622013e-4 4.525706010137582e-2 -7.24112961622013e-4c 6.734250543084722e-2,0.0 7.78421433743664e-2,3.1498913830557564e-2 7.78421433743664e-2 5.5756698044895e-2c 0.0,1.965966690803765e-2 -1.6256335988414194e-2,3.8233164373642284e-2 -3.4395365677045625e-2 4.742939898624185e-2v 7.24112961622013e-4 c 3.149891383055757e-2,9.051412020275162e-3 5.5756698044895005e-2,2.8964518464880518e-2 5.5756698044895005e-2 6.372194062273714e-2c 0.0,3.113685734974656e-2 -1.9188993482983346e-2,6.73425054308472e-2 -9.123823316437366e-2 6.73425054308472e-2c -3.041274438812455e-2,0.0 -3.993482983345402e-2,-7.24112961622013e-4 -5.286024619840696e-2 -7.24112961622013e-4c -1.3432295438088344e-2,0.0 -3.29471397538016e-2,3.620564808110065e-4 -4.706734250543085e-2 7.24112961622013e-4c -2.172338884866039e-3,-2.172338884866039e-3 -2.172338884866039e-3,-9.775524981897175e-3 0.0 -1.1947863866763215e-2c 2.534395365677046e-2,-1.0861694424330196e-3 3.149891383055757e-2,-2.896451846488052e-3 3.149891383055757e-2 -3.294713975380159e-2v -0.1451846488052136 c 0.0,-3.005068790731354e-2 -6.1549601737871116e-3,-3.186097031136857e-2 -3.149891383055757e-2 -3.294713975380159e-2c -2.172338884866039e-3,-2.172338884866039e-3 -2.172338884866039e-3,-9.775524981897175e-3 0.0 -1.1947863866763215e-2c 1.4120202751629255e-2,3.620564808110065e-4 3.377986965966691e-2,7.24112961622013e-4 4.6705286024619846e-2 7.24112961622013e-4l 2.7755575615628914e-17,-3.7513395167998453e-17 Z" /></g></g><g><g><g><g fill-opacity="0.0"><path d="M 2.5,3.5 h 1.0 " /></g><g stroke="rgb(255,165,0)" stroke-opacity="1.0" fill="rgb(255,165,0)" fill-opacity="1.0" stroke-width="1.0e-2"><path d="M 3.5,3.5 l -1.1102230246251565e-16,-1.0 h -1.0 l -1.1102230246251565e-16,1.0 h 1.0 Z" /></g><g stroke="rgb(255,255,255)" stroke-opacity="1.0" fill-opacity="0.0" stroke-width="2.0e-2"><path d="M 3.0,2.5 v 1.0 " /></g><g stroke="rgb(128,0,128)" stroke-opacity="1.0" fill="rgb(0,0,0)" fill-opacity="1.0" stroke-width="2.0e-2"><path d="M 3.3,3.0 c 0.0,-0.16568542494923802 -0.13431457505076191,-0.3 -0.29999999999999993 -0.3c -0.16568542494923802,-1.0144971206429875e-17 -0.3,0.13431457505076191 -0.3 0.2999999999999999c -2.028994241285975e-17,0.16568542494923802 0.1343145750507619,0.3 0.2999999999999999 0.3c 0.16568542494923802,3.043491361928963e-17 0.3,-0.1343145750507619 0.3 -0.2999999999999999Z" /></g><g stroke="rgb(255,255,255)" stroke-opacity="1.0" fill="rgb(255,255,255)" fill-opacity="1.0"><path d="M 2.794442433019551,3.1187545257060103 ZM 2.8896632874728456,3.016292541636495 h 6.408399710354815e-2 l -3.403330919623461e-2,-9.847936278059377e-2 h -2.172338884866039e-3 l -3.7002172338884864e-2,9.366401158580738e-2 c -1.3758146270818246e-3,3.729181752353367e-3 1.1585807385952208e-3,4.8153511947863865e-3 9.123823316437364e-3 4.8153511947863865e-3l 1.734723475976807e-18,4.336808689942018e-18 ZM 2.8896632874728456,3.016292541636495 ZM 2.850561187545257,3.0901520637219404 c -5.6480811006517015e-3,1.4880521361332368e-2 1.1368573497465603e-2,1.6437364228819695e-2 2.4981897175959448e-2 1.7378711078928313e-2c 2.172338884866039e-3,2.172338884866039e-3 2.172338884866039e-3,9.775524981897175e-3 0.0 1.1947863866763215e-2c -1.339608979000724e-2,-3.620564808110065e-4 -3.1498913830557564e-2,-7.24112961622013e-4 -4.634322954380883e-2 -7.24112961622013e-4c -1.0970311368573496e-2,0.0 -2.280955829109341e-2,3.620564808110065e-4 -3.222302679217958e-2 7.24112961622013e-4c -2.172338884866039e-3,-2.172338884866039e-3 -2.172338884866039e-3,-9.775524981897175e-3 0.0 -1.1947863866763215e-2c 1.5749456915278782e-2,-1.0861694424330196e-3 2.679217958001448e-2,-3.2585083272990583e-3 3.620564808110065e-2 -2.570601013758146e-2l 8.218682114409848e-2,-0.19406227371469947 c 4.706734250543084e-3,0.0 1.4482259232440259e-2,-3.9826212889210715e-3 1.9913106444605356e-2 -7.241129616220129e-3l 7.458363504706733e-2,0.20709630702389573 c 6.299782766111512e-3,1.7451122375090514e-2 1.8537291817523532e-2,1.8645908761766833e-2 3.258508327299058e-2 1.9913106444605356e-2c 2.172338884866039e-3,2.172338884866039e-3 2.172338884866039e-3,9.775524981897175e-3 0.0 1.1947863866763215e-2c -1.2671976828385226e-2,-3.620564808110065e-4 -2.6430123099203475e-2,-7.24112961622013e-4 -4.127443881245474e-2 -7.24112961622013e-4c -1.4120202751629254e-2,0.0 -3.403330919623461e-2,3.620564808110065e-4 -4.742939898624185e-2 7.24112961622013e-4c -2.172338884866039e-3,-2.172338884866039e-3 -2.172338884866039e-3,-9.775524981897175e-3 0.0 -1.1947863866763215e-2c 1.723388848660391e-2,-1.230992034757422e-3 3.1064446053584355e-2,-2.353367125271542e-3 2.679217958001448e-2 -1.4844315713251266e-2l -2.0999275887038378e-2,-6.11875452570601e-2 h -7.639391745112237e-2 c -8.689355539464157e-3,0.0 -1.0861694424330194e-2,1.448225923244026e-3 -1.2671976828385226e-2 6.154960173787111e-3l -1.9913106444605363e-2,5.249818971759592e-2 ZM 3.0460716871832005,3.1187545257060103 ZM 3.147085445329471,3.0300506879073135 l 6.517016654598117e-3,-4.163649529326575e-2 h -4.091238233164373e-2 l -6.8790731354091235e-3,4.163649529326575e-2 h 4.127443881245474e-2 h -6.938893903907228e-18 ZM 3.147085445329471,3.0300506879073135 ZM 3.1673606082548877,2.988414192614048 l -6.8790731354091235e-3,4.163649529326575e-2 h 3.439536567704562e-2 l -2.5343953656770456e-3,1.9188993482983346e-2 h -3.403330919623461e-2 l -1.0861694424330194e-2,6.444605358435916e-2 h -1.3758146270818247e-2 l 9.775524981897175e-3,-6.444605358435916e-2 h -4.055032585083273e-2 l -1.0499637943519189e-2,6.444605358435916e-2 h -1.339608979000724e-2 l 1.0137581462708182e-2,-6.444605358435916e-2 h -3.36712527154236e-2 l 2.896451846488052e-3,-1.9188993482983346e-2 h 3.403330919623461e-2 l 6.517016654598117e-3,-4.163649529326575e-2 h -3.36712527154236e-2 l 2.896451846488052e-3,-1.9188993482983346e-2 h 3.36712527154236e-2 l 1.0499637943519189e-2,-6.480811006517016e-2 h 1.3758146270818247e-2 l -1.0861694424330194e-2,6.480811006517016e-2 h 4.127443881245474e-2 l 1.0137581462708182e-2,-6.480811006517016e-2 h 1.3758146270818247e-2 l -1.0499637943519189e-2,6.480811006517016e-2 h 3.475742215785663e-2 l -2.896451846488052e-3,1.9188993482983346e-2 h -3.439536567704562e-2 l -6.938893903907228e-18,-1.3877787807814457e-17 Z" /></g></g><g fill-opacity="0.0"><path d="M 2.5,2.5 h 1.0 " /></g><g stroke="rgb(255,165,0)" stroke-opacity="1.0" fill="rgb(255,165,0)" fill-opacity="1.0" stroke-width="1.0e-2"><path d="M 3.5,2.5 l -1.1102230246251565e-16,-1.0 h -1.0 l -1.1102230246251565e-16,1.0 h 1.0 Z" /></g><g stroke="rgb(255,255,255)" stroke-opacity="1.0" fill-opacity="0.0" stroke-width="2.0e-2"><path d="M 3.0,1.5 v 1.0 " /></g><g stroke="rgb(128,0,128)" stroke-opacity="1.0" fill="rgb(0,0,0)" fill-opacity="1.0" stroke-width="2.0e-2"><path d="M 3.3,2.0 c 0.0,-0.16568542494923802 -0.13431457505076191,-0.3 -0.29999999999999993 -0.3c -0.16568542494923802,-1.0144971206429875e-17 -0.3,0.13431457505076191 -0.3 0.2999999999999999c -2.028994241285975e-17,0.16568542494923802 0.1343145750507619,0.3 0.2999999999999999 0.3c 0.16568542494923802,3.043491361928963e-17 0.3,-0.1343145750507619 0.3 -0.2999999999999999Z" /></g><g stroke="rgb(255,255,255)" stroke-opacity="1.0" fill="rgb(255,255,255)" fill-opacity="1.0"><path d="M 2.874728457639392,2.1187545257060103 ZM 2.9699493120926865,2.016292541636495 h 6.408399710354815e-2 l -3.403330919623461e-2,-9.847936278059377e-2 h -2.172338884866039e-3 l -3.7002172338884864e-2,9.366401158580738e-2 c -1.3758146270818246e-3,3.729181752353367e-3 1.1585807385952208e-3,4.8153511947863865e-3 9.123823316437364e-3 4.8153511947863865e-3l 1.734723475976807e-18,4.336808689942018e-18 ZM 2.9699493120926865,2.016292541636495 ZM 2.930847212165098,2.0901520637219404 c -5.6480811006517015e-3,1.4880521361332368e-2 1.1368573497465603e-2,1.6437364228819695e-2 2.4981897175959448e-2 1.7378711078928313e-2c 2.172338884866039e-3,2.172338884866039e-3 2.172338884866039e-3,9.775524981897175e-3 0.0 1.1947863866763215e-2c -1.339608979000724e-2,-3.620564808110065e-4 -3.1498913830557564e-2,-7.24112961622013e-4 -4.634322954380883e-2 -7.24112961622013e-4c -1.0970311368573496e-2,0.0 -2.280955829109341e-2,3.620564808110065e-4 -3.222302679217958e-2 7.24112961622013e-4c -2.172338884866039e-3,-2.172338884866039e-3 -2.172338884866039e-3,-9.775524981897175e-3 0.0 -1.1947863866763215e-2c 1.5749456915278782e-2,-1.0861694424330196e-3 2.679217958001448e-2,-3.2585083272990583e-3 3.620564808110065e-2 -2.570601013758146e-2l 8.218682114409848e-2,-0.19406227371469947 c 4.706734250543084e-3,0.0 1.4482259232440259e-2,-3.9826212889210715e-3 1.9913106444605356e-2 -7.241129616220129e-3l 7.458363504706733e-2,0.20709630702389573 c 6.299782766111512e-3,1.7451122375090514e-2 1.8537291817523532e-2,1.8645908761766833e-2 3.258508327299058e-2 1.9913106444605356e-2c 2.172338884866039e-3,2.172338884866039e-3 2.172338884866039e-3,9.775524981897175e-3 0.0 1.1947863866763215e-2c -1.2671976828385226e-2,-3.620564808110065e-4 -2.6430123099203475e-2,-7.24112961622013e-4 -4.127443881245474e-2 -7.24112961622013e-4c -1.4120202751629254e-2,0.0 -3.403330919623461e-2,3.620564808110065e-4 -4.742939898624185e-2 7.24112961622013e-4c -2.172338884866039e-3,-2.172338884866039e-3 -2.172338884866039e-3,-9.775524981897175e-3 0.0 -1.1947863866763215e-2c 1.723388848660391e-2,-1.230992034757422e-3 3.1064446053584355e-2,-2.353367125271542e-3 2.679217958001448e-2 -1.4844315713251266e-2l -2.0999275887038378e-2,-6.11875452570601e-2 h -7.639391745112237e-2 c -8.689355539464157e-3,0.0 -1.0861694424330194e-2,1.448225923244026e-3 -1.2671976828385226e-2 6.154960173787111e-3l -1.9913106444605363e-2,5.249818971759592e-2 Z" /></g></g><g fill-opacity="0.0"><path d="M 2.5,1.5 h 1.0 " /></g><g stroke="rgb(255,165,0)" stroke-opacity="1.0" fill="rgb(255,165,0)" fill-opacity="1.0" stroke-width="1.0e-2"><path d="M 3.5,1.5 l -1.1102230246251565e-16,-1.0 h -1.0 l -1.1102230246251565e-16,1.0 h 1.0 Z" /></g><g stroke="rgb(255,255,255)" stroke-opacity="1.0" fill-opacity="0.0" stroke-width="2.0e-2"><path d="M 3.0,0.5 v 1.0 " /></g><g stroke="rgb(128,0,128)" stroke-opacity="1.0" fill="rgb(0,0,0)" fill-opacity="1.0" stroke-width="2.0e-2"><path d="M 3.3,1.0 c 0.0,-0.16568542494923802 -0.13431457505076191,-0.3 -0.29999999999999993 -0.3c -0.16568542494923802,-1.0144971206429875e-17 -0.3,0.13431457505076191 -0.3 0.2999999999999999c -2.028994241285975e-17,0.16568542494923802 0.1343145750507619,0.3 0.2999999999999999 0.3c 0.16568542494923802,3.043491361928963e-17 0.3,-0.1343145750507619 0.3 -0.2999999999999999Z" /></g><g stroke="rgb(255,255,255)" stroke-opacity="1.0" fill="rgb(255,255,255)" fill-opacity="1.0"><path d="M 2.790007241129616,1.117306299782766 ZM 2.9265025343953655,0.8790731354091238 c 4.018826937002173e-2,0.0 5.358435916002897e-2,1.2671976828385226e-2 7.530774800868936e-2 1.629254163649529e-2c 5.792903692976105e-3,2.6068066618392467e-2 7.4221578566256345e-3,4.055032585083273e-2 8.32729905865315e-3 5.5756698044895e-2c -4.091238233164375e-3,1.7016690803765386e-3 -7.856625633598843e-3,2.4257820419985514e-3 -1.1947863866763216e-2 2.172338884866039e-3c -9.41346850108617e-3,-3.113685734974656e-2 -2.4257784214337438e-2,-6.11875452570601e-2 -7.675597393193338e-2 -6.11875452570601e-2c -4.2179580014482264e-2,0.0 -8.327299058653151e-2,4.3446777697320776e-2 -8.327299058653151e-2 0.10680666183924692c 0.0,4.779145546705286e-2 3.041274438812455e-2,0.10897900072411296 8.761766835626358e-2 0.10897900072411296c 1.9551049963794354e-2,0.0 4.380883417813179e-2,-2.172338884866039e-3 5.611875452570601e-2 -1.3758146270818247e-2v -5.5394641564083996e-2 c 0.0,-1.451846488052136e-2 -9.811730629978277e-3,-1.5858073859522082e-2 -2.9688631426502538e-2 -1.7378711078928313e-2c -2.172338884866039e-3,-2.172338884866039e-3 -2.172338884866039e-3,-1.0861694424330194e-2 0.0 -1.3034033309196233e-2c 1.593048515568429e-2,3.620564808110065e-4 3.276611151339609e-2,7.24112961622013e-4 4.489500362056481e-2 7.24112961622013e-4c 1.4482259232440262e-2,0.0 2.3533671252715424e-2,-3.620564808110065e-4 3.222302679217958e-2 -7.24112961622013e-4c 2.172338884866039e-3,2.172338884866039e-3 2.172338884866039e-3,1.0861694424330194e-2 0.0 1.3034033309196233e-2c -1.0499637943519189e-2,1.0861694424330196e-3 -1.66545981173063e-2,4.634322954380883e-3 -1.66545981173063e-2 1.7378711078928313e-2v 4.1998551774076756e-2 c 0.0,3.9826212889210715e-3 1.8102824040550328e-3,6.8790731354091235e-3 5.792903692976105e-3 1.0137581462708182e-2c -2.4619840695148446e-2,2.0999275887038378e-2 -5.829109341057205e-2,3.005068790731354e-2 -0.10101375814627082 3.005068790731354e-2c -6.915278783490225e-2,0.0 -0.11404779145546706,-4.967414916727009e-2 -0.11404779145546706 -0.11477190441708905c 0.0,-7.965242577842142e-2 6.263577118030413e-2,-0.1270818247646633 0.12309920347574223 -0.1270818247646633h -4.163336342344337e-17 ZM 3.0380159304851557,1.117306299782766 ZM 3.1390296886314264,1.0286024619840695 l 6.5170166545981175e-3,-4.163649529326575e-2 h -4.091238233164374e-2 l -6.879073135409124e-3,4.163649529326575e-2 h 4.1274438812454746e-2 h -6.938893903907228e-18 ZM 3.1390296886314264,1.0286024619840695 ZM 3.159304851556843,0.9869659666908037 l -6.879073135409124e-3,4.163649529326575e-2 h 3.4395365677045625e-2 l -2.534395365677046e-3,1.9188993482983346e-2 h -3.403330919623462e-2 l -1.0861694424330196e-2,6.444605358435916e-2 h -1.3758146270818249e-2 l 9.775524981897177e-3,-6.444605358435916e-2 h -4.0550325850832736e-2 l -1.0499637943519189e-2,6.444605358435916e-2 h -1.3396089790007242e-2 l 1.0137581462708184e-2,-6.444605358435916e-2 h -3.367125271542361e-2 l 2.8964518464880524e-3,-1.9188993482983346e-2 h 3.403330919623462e-2 l 6.5170166545981175e-3,-4.163649529326575e-2 h -3.367125271542361e-2 l 2.8964518464880524e-3,-1.9188993482983346e-2 h 3.367125271542361e-2 l 1.0499637943519189e-2,-6.480811006517016e-2 h 1.3758146270818249e-2 l -1.0861694424330196e-2,6.480811006517016e-2 h 4.1274438812454746e-2 l 1.0137581462708184e-2,-6.480811006517016e-2 h 1.3758146270818249e-2 l -1.0499637943519189e-2,6.480811006517016e-2 h 3.475742215785663e-2 l -2.8964518464880524e-3,1.9188993482983346e-2 h -3.4395365677045625e-2 l -1.3877787807814457e-17,-1.3877787807814457e-17 Z" /></g></g><g fill-opacity="0.0"><path d="M 2.5,0.5 h 1.0 " /></g><g stroke="rgb(255,165,0)" stroke-opacity="1.0" fill="rgb(255,165,0)" fill-opacity="1.0" stroke-width="1.0e-2"><path d="M 3.5,0.5 l -1.1102230246251565e-16,-1.0 h -1.0 l -1.1102230246251565e-16,1.0 h 1.0 Z" /></g><g stroke="rgb(255,255,255)" stroke-opacity="1.0" fill-opacity="0.0" stroke-width="2.0e-2"><path d="M 3.0,-0.5 v 1.0 " /></g><g stroke="rgb(128,0,128)" stroke-opacity="1.0" fill="rgb(0,0,0)" fill-opacity="1.0" stroke-width="2.0e-2"><path d="M 3.3,5.551115123125783e-17 c 0.0,-0.16568542494923802 -0.13431457505076191,-0.3 -0.29999999999999993 -0.3c -0.16568542494923802,-1.0144971206429875e-17 -0.3,0.13431457505076191 -0.3 0.2999999999999999c -2.028994241285975e-17,0.16568542494923802 0.1343145750507619,0.3 0.2999999999999999 0.3c 0.16568542494923802,3.043491361928963e-17 0.3,-0.1343145750507619 0.3 -0.2999999999999999Z" /></g><g stroke="rgb(255,255,255)" stroke-opacity="1.0" fill="rgb(255,255,255)" fill-opacity="1.0"><path d="M 2.872827661115134,0.1173062997827661 ZM 3.0093229543808833,-0.12092686459087618 c 4.018826937002172e-2,0.0 5.358435916002896e-2,1.2671976828385226e-2 7.530774800868935e-2 1.629254163649529e-2c 5.792903692976104e-3,2.6068066618392467e-2 7.422157856625633e-3,4.055032585083273e-2 8.32729905865315e-3 5.5756698044895e-2c -4.091238233164374e-3,1.7016690803765386e-3 -7.85662563359884e-3,2.4257820419985514e-3 -1.1947863866763215e-2 2.172338884866039e-3c -9.413468501086169e-3,-3.113685734974656e-2 -2.4257784214337434e-2,-6.11875452570601e-2 -7.675597393193338e-2 -6.11875452570601e-2c -4.217958001448226e-2,0.0 -8.32729905865315e-2,4.3446777697320776e-2 -8.32729905865315e-2 0.10680666183924692c 0.0,4.779145546705286e-2 3.0412744388124545e-2,0.10897900072411296 8.761766835626357e-2 0.10897900072411296c 1.955104996379435e-2,0.0 4.3808834178131785e-2,-2.172338884866039e-3 5.6118754525706006e-2 -1.3758146270818247e-2v -5.5394641564083996e-2 c 0.0,-1.451846488052136e-2 -9.811730629978277e-3,-1.5858073859522082e-2 -2.968863142650253e-2 -1.7378711078928313e-2c -2.172338884866039e-3,-2.172338884866039e-3 -2.172338884866039e-3,-1.0861694424330194e-2 0.0 -1.3034033309196233e-2c 1.5930485155684286e-2,3.620564808110065e-4 3.276611151339609e-2,7.24112961622013e-4 4.4895003620564804e-2 7.24112961622013e-4c 1.4482259232440259e-2,0.0 2.353367125271542e-2,-3.620564808110065e-4 3.222302679217958e-2 -7.24112961622013e-4c 2.172338884866039e-3,2.172338884866039e-3 2.172338884866039e-3,1.0861694424330194e-2 0.0 1.3034033309196233e-2c -1.0499637943519189e-2,1.0861694424330196e-3 -1.66545981173063e-2,4.634322954380883e-3 -1.66545981173063e-2 1.7378711078928313e-2v 4.1998551774076756e-2 c 0.0,3.9826212889210715e-3 1.8102824040550324e-3,6.8790731354091235e-3 5.792903692976104e-3 1.0137581462708182e-2c -2.4619840695148443e-2,2.0999275887038378e-2 -5.8291093410572044e-2,3.005068790731354e-2 -0.10101375814627081 3.005068790731354e-2c -6.915278783490224e-2,0.0 -0.11404779145546705,-4.967414916727009e-2 -0.11404779145546705 -0.11477190441708905c 0.0,-7.965242577842142e-2 6.263577118030413e-2,-0.1270818247646633 0.12309920347574221 -0.1270818247646633h 1.3877787807814457e-17 Z" /></g></g><g><g><g><g fill-opacity="0.0"><path d="M 1.5,3.5 h 1.0 " /></g><g stroke="rgb(255,165,0)" stroke-opacity="1.0" fill="rgb(255,165,0)" fill-opacity="1.0" stroke-width="1.0e-2"><path d="M 2.5,3.5 l -1.1102230246251565e-16,-1.0 h -1.0 l -1.1102230246251565e-16,1.0 h 1.0 Z" /></g><g stroke="rgb(255,255,255)" stroke-opacity="1.0" fill-opacity="0.0" stroke-width="2.0e-2"><path d="M 2.0,2.5 v 1.0 " /></g><g stroke="rgb(128,0,128)" stroke-opacity="1.0" fill="rgb(0,0,0)" fill-opacity="1.0" stroke-width="2.0e-2"><path d="M 2.3,3.0 c 0.0,-0.16568542494923802 -0.13431457505076191,-0.3 -0.29999999999999993 -0.3c -0.16568542494923802,-1.0144971206429875e-17 -0.3,0.13431457505076191 -0.3 0.2999999999999999c -2.028994241285975e-17,0.16568542494923802 0.1343145750507619,0.3 0.2999999999999999 0.3c 0.16568542494923802,3.043491361928963e-17 0.3,-0.1343145750507619 0.3 -0.2999999999999999Z" /></g><g stroke="rgb(255,255,255)" stroke-opacity="1.0" fill="rgb(255,255,255)" fill-opacity="1.0"><path d="M 1.9115677045619117,3.1171252715423607 ZM 2.0140296886314264,3.0001810282404056 h -3.367125271542361e-2 v 7.277335264301231e-2 c 0.0,3.005068790731354e-2 6.1549601737871116e-3,3.186097031136857e-2 3.149891383055757e-2 3.294713975380159e-2c 2.172338884866039e-3,2.172338884866039e-3 2.172338884866039e-3,9.775524981897175e-3 0.0 1.1947863866763215e-2c -1.267197682838523e-2,-3.620564808110065e-4 -3.041274438812455e-2,-7.24112961622013e-4 -4.6705286024619846e-2 -7.24112961622013e-4c -1.6292541636495295e-2,0.0 -3.4395365677045625e-2,3.620564808110065e-4 -4.706734250543085e-2 7.24112961622013e-4c -2.172338884866039e-3,-2.172338884866039e-3 -2.172338884866039e-3,-9.775524981897175e-3 0.0 -1.1947863866763215e-2c 2.534395365677046e-2,-1.0861694424330196e-3 3.149891383055757e-2,-2.896451846488052e-3 3.149891383055757e-2 -3.294713975380159e-2v -0.1451846488052136 c 0.0,-3.005068790731354e-2 -6.1549601737871116e-3,-3.186097031136857e-2 -3.149891383055757e-2 -3.294713975380159e-2c -2.172338884866039e-3,-2.172338884866039e-3 -2.172338884866039e-3,-9.775524981897175e-3 0.0 -1.1947863866763215e-2c 1.4482259232440262e-2,3.620564808110065e-4 3.5119478638667635e-2,7.24112961622013e-4 4.6705286024619846e-2 7.24112961622013e-4h 9.243301955104997e-2 c 8.942795076031861e-3,0.0 1.0680666183924693e-2,-2.1722519913106446e-4 1.701665459811731e-2 -1.448225923244026e-3c 8.68942795076032e-4,0.0 1.3034069514844318e-3,2.534438812454743e-4 1.4482259232440262e-3 1.0861694424330196e-3c 5.068863142650254e-4,2.751622013034033e-3 5.973931933381608e-3,3.7653874004344674e-2 7.856625633598843e-3 5.249818971759594e-2c -2.8964518464880524e-3,1.0861694424330196e-3 -6.879073135409124e-3,1.8102824040550324e-3 -1.1223750905141203e-2 1.8102824040550324e-3c -7.965242577842145e-3,-2.4981897175959448e-2 -1.701665459811731e-2,-3.946415640839971e-2 -5.5394641564084e-2 -3.946415640839971e-2h -1.6292541636495295e-2 c -1.593048515568429e-2,0.0 -2.0275162925416368e-2,3.6205648081100647e-3 -2.0275162925416368e-2 2.3171614771904415e-2v 6.517016654598116e-2 h 3.367125271542361e-2 c 3.0774800868935557e-2,0.0 3.186097031136858e-2,-4.706734250543084e-3 3.29471397538016e-2 -2.4619840695148443e-2c 2.172338884866039e-3,-2.172338884866039e-3 9.775524981897177e-3,-2.172338884866039e-3 1.1947863866763216e-2 0.0c -3.6205648081100655e-4,9.413468501086169e-3 -7.241129616220131e-4,1.900796524257784e-2 -7.241129616220131e-4 3.113685734974656e-2c 0.0,1.2418537291817522e-2 3.6205648081100655e-4,2.280955829109341e-2 7.241129616220131e-4 3.186097031136857e-2c -2.172338884866039e-3,2.172338884866039e-3 -9.775524981897177e-3,2.172338884866039e-3 -1.1947863866763216e-2 0.0c -1.0861694424330196e-3,-1.629254163649529e-2 -2.172338884866039e-3,-2.4619840695148443e-2 -3.29471397538016e-2 -2.4619840695148443e-2h -6.938893903907228e-18 Z" /></g></g><g fill-opacity="0.0"><path d="M 1.5,2.5 h 1.0 " /></g><g stroke="rgb(255,165,0)" stroke-opacity="1.0" fill="rgb(255,165,0)" fill-opacity="1.0" stroke-width="1.0e-2"><path d="M 2.5,2.5 l -1.1102230246251565e-16,-1.0 h -1.0 l -1.1102230246251565e-16,1.0 h 1.0 Z" /></g><g stroke="rgb(255,255,255)" stroke-opacity="1.0" fill-opacity="0.0" stroke-width="2.0e-2"><path d="M 2.0,1.5 v 1.0 " /></g><g stroke="rgb(128,0,128)" stroke-opacity="1.0" fill="rgb(0,0,0)" fill-opacity="1.0" stroke-width="2.0e-2"><path d="M 2.3,2.0 c 0.0,-0.16568542494923802 -0.13431457505076191,-0.3 -0.29999999999999993 -0.3c -0.16568542494923802,-1.0144971206429875e-17 -0.3,0.13431457505076191 -0.3 0.2999999999999999c -2.028994241285975e-17,0.16568542494923802 0.1343145750507619,0.3 0.2999999999999999 0.3c 0.16568542494923802,3.043491361928963e-17 0.3,-0.1343145750507619 0.3 -0.2999999999999999Z" /></g><g stroke="rgb(255,255,255)" stroke-opacity="1.0" fill="rgb(255,255,255)" fill-opacity="1.0"><path d="M 1.90197320782042,2.1171252715423607 ZM 2.003711078928313,1.9864228819695873 c 3.0774800868935553e-2,0.0 3.186097031136857e-2,-4.706734250543084e-3 3.294713975380159e-2 -2.4619840695148443e-2c 2.172338884866039e-3,-2.172338884866039e-3 9.775524981897175e-3,-2.172338884866039e-3 1.1947863866763215e-2 0.0c -3.620564808110065e-4,8.689355539464157e-3 -7.24112961622013e-4,2.0999275887038378e-2 -7.24112961622013e-4 3.113685734974656e-2c 0.0,1.2418537291817522e-2 3.620564808110065e-4,2.2447501810282402e-2 7.24112961622013e-4 3.186097031136857e-2c -2.172338884866039e-3,2.172338884866039e-3 -9.775524981897175e-3,2.172338884866039e-3 -1.1947863866763215e-2 0.0c -1.0861694424330196e-3,-1.629254163649529e-2 -2.172338884866039e-3,-2.4619840695148443e-2 -3.294713975380159e-2 -2.4619840695148443e-2h -3.294713975380159e-2 v 8.001448225923244e-2 c 0.0,1.7016654598117305e-2 5.068790731354091e-3,2.280955829109341e-2 2.0275162925416364e-2 2.280955829109341e-2h 4.1998551774076756e-2 c 2.7516292541636494e-2,0.0 4.018826937002172e-2,-2.1361332367849383e-2 4.742939898624185e-2 -4.742939898624185e-2c 4.742939898624185e-3,-1.1585807385952208e-3 8.90658942795076e-3,-3.25848660391021e-4 1.2671976828385226e-2 1.8102824040550324e-3c -2.896451846488052e-3,1.8464880521361332e-2 -8.32729905865315e-3,4.236060825488776e-2 -1.339608979000724e-2 6.046343229543808e-2c 0.0,0.0 -2.8964518464880518e-2,-7.24112961622013e-4 -4.634322954380883e-2 -7.24112961622013e-4h -7.78421433743664e-2 c -1.1947863866763215e-2,0.0 -3.36712527154236e-2,3.620564808110065e-4 -4.706734250543084e-2 7.24112961622013e-4c -2.172338884866039e-3,-2.172338884866039e-3 -2.172338884866039e-3,-9.775524981897175e-3 0.0 -1.1947863866763215e-2c 2.5343953656770453e-2,-1.0861694424330196e-3 3.1498913830557564e-2,-2.896451846488052e-3 3.1498913830557564e-2 -3.294713975380159e-2v -0.1451846488052136 c 0.0,-3.005068790731354e-2 -6.154960173787111e-3,-3.186097031136857e-2 -3.1498913830557564e-2 -3.294713975380159e-2c -2.172338884866039e-3,-2.172338884866039e-3 -2.172338884866039e-3,-9.775524981897175e-3 0.0 -1.1947863866763215e-2c 1.4482259232440259e-2,3.620564808110065e-4 3.566256335988414e-2,7.24112961622013e-4 4.670528602461984e-2 7.24112961622013e-4h 9.232440260680666e-2 c 8.689355539464157e-3,0.0 1.1585807385952208e-2,-3.620564808110065e-4 1.774076755973932e-2 -1.448225923244026e-3c 1.0861694424330196e-3,0.0 1.448225923244026e-3,3.620564808110065e-4 1.448225923244026e-3 1.0861694424330196e-3c 7.24112961622013e-4,2.896451846488052e-3 6.154960173787111e-3,3.7653874004344674e-2 7.965242577842143e-3 5.249818971759594e-2c -3.548149891383055e-3,1.7016690803765386e-3 -7.458363504706734e-3,2.461980448950036e-3 -1.1947863866763215e-2 1.8102824040550324e-3c -7.965242577842143e-3,-2.4981897175959448e-2 -1.3758146270818247e-2,-3.946415640839971e-2 -4.091238233164373e-2 -3.946415640839971e-2h -2.7154236060825485e-2 c -1.955104996379435e-2,0.0 -2.389572773352643e-2,7.241129616220129e-3 -2.389572773352643e-2 2.3171614771904415e-2v 6.517016654598116e-2 h 3.294713975380159e-2 l -2.0816681711721685e-17,1.3877787807814457e-17 Z" /></g></g><g fill-opacity="0.0"><path d="M 1.5,1.5 h 1.0 " /></g><g stroke="rgb(255,165,0)" stroke-opacity="1.0" fill="rgb(255,165,0)" fill-opacity="1.0" stroke-width="1.0e-2"><path d="M 2.5,1.5 l -1.1102230246251565e-16,-1.0 h -1.0 l -1.1102230246251565e-16,1.0 h 1.0 Z" /></g><g stroke="rgb(255,255,255)" stroke-opacity="1.0" fill-opacity="0.0" stroke-width="2.0e-2"><path d="M 2.0,0.5 v 1.0 " /></g><g stroke="rgb(128,0,128)" stroke-opacity="1.0" fill="rgb(0,0,0)" fill-opacity="1.0" stroke-width="2.0e-2"><path d="M 2.3,1.0 c 0.0,-0.16568542494923802 -0.13431457505076191,-0.3 -0.29999999999999993 -0.3c -0.16568542494923802,-1.0144971206429875e-17 -0.3,0.13431457505076191 -0.3 0.2999999999999999c -2.028994241285975e-17,0.16568542494923802 0.1343145750507619,0.3 0.2999999999999999 0.3c 0.16568542494923802,3.043491361928963e-17 0.3,-0.1343145750507619 0.3 -0.2999999999999999Z" /></g><g stroke="rgb(255,255,255)" stroke-opacity="1.0" fill="rgb(255,255,255)" fill-opacity="1.0"><path d="M 1.791183924692252,1.1167632150615496 ZM 1.8603367125271542,1.086350470673425 c 0.0,1.1585807385952208e-2 3.9826212889210715e-3,1.8826937002172337e-2 3.946415640839971e-2 1.8826937002172337e-2c 5.1049963794351914e-2,0.0 9.48587979724837e-2,-1.8102824040550324e-2 9.48587979724837e-2 -9.123823316437364e-2c 0.0,-5.5756698044895e-2 -2.570601013758146e-2,-0.11911658218682114 -0.10391020999275886 -0.11911658218682114c -1.774076755973932e-2,0.0 -3.0412744388124545e-2,5.068790731354091e-3 -3.0412744388124545e-2 1.774076755973932e-2v 0.1737871107892831 l 6.938893903907228e-18,2.7755575615628914e-17 ZM 1.8603367125271542,1.086350470673425 ZM 1.844768283852281,0.8832367849384504 c 1.4120202751629254e-2,0.0 3.403330919623461e-2,-7.24112961622013e-4 5.973931933381607e-2 -7.24112961622013e-4c 6.951484431571325e-2,0.0 0.12490948587979724,5.5394641564083996e-2 0.12490948587979724 0.1227371469949312c 0.0,8.906589427950759e-2 -6.73425054308472e-2,0.11223750905141201 -0.11839246922519912 0.11223750905141201c -3.7291817523533666e-2,0.0 -5.249818971759594e-2,-7.24112961622013e-4 -6.589427950760318e-2 -7.24112961622013e-4c -1.3649529326574946e-2,0.0 -3.294713975380159e-2,3.620564808110065e-4 -4.706734250543084e-2 7.24112961622013e-4c -2.172338884866039e-3,-2.172338884866039e-3 -2.172338884866039e-3,-9.775524981897175e-3 0.0 -1.1947863866763215e-2c 2.5343953656770453e-2,-1.0861694424330196e-3 3.1498913830557564e-2,-2.896451846488052e-3 3.1498913830557564e-2 -3.294713975380159e-2v -0.1451846488052136 c 0.0,-3.005068790731354e-2 -6.154960173787111e-3,-3.186097031136857e-2 -3.1498913830557564e-2 -3.294713975380159e-2c -2.172338884866039e-3,-2.172338884866039e-3 -2.172338884866039e-3,-9.775524981897175e-3 0.0 -1.1947863866763215e-2c 1.4482259232440259e-2,3.620564808110065e-4 3.37798696596669e-2,7.24112961622013e-4 4.670528602461984e-2 7.24112961622013e-4l -1.3877787807814457e-17,-9.75781955236954e-18 ZM 2.0449855177407676,1.1167632150615496 ZM 2.1459992758870383,1.028059377262853 l 6.517016654598117e-3,-4.163649529326575e-2 h -4.091238233164373e-2 l -6.8790731354091235e-3,4.163649529326575e-2 h 4.127443881245474e-2 h -6.938893903907228e-18 ZM 2.1459992758870383,1.028059377262853 ZM 2.166274438812455,0.9864228819695873 l -6.8790731354091235e-3,4.163649529326575e-2 h 3.439536567704562e-2 l -2.5343953656770456e-3,1.9188993482983346e-2 h -3.403330919623461e-2 l -1.0861694424330194e-2,6.444605358435916e-2 h -1.3758146270818247e-2 l 9.775524981897175e-3,-6.444605358435916e-2 h -4.055032585083273e-2 l -1.0499637943519189e-2,6.444605358435916e-2 h -1.339608979000724e-2 l 1.0137581462708182e-2,-6.444605358435916e-2 h -3.36712527154236e-2 l 2.896451846488052e-3,-1.9188993482983346e-2 h 3.403330919623461e-2 l 6.517016654598117e-3,-4.163649529326575e-2 h -3.36712527154236e-2 l 2.896451846488052e-3,-1.9188993482983346e-2 h 3.36712527154236e-2 l 1.0499637943519189e-2,-6.480811006517016e-2 h 1.3758146270818247e-2 l -1.0861694424330194e-2,6.480811006517016e-2 h 4.127443881245474e-2 l 1.0137581462708182e-2,-6.480811006517016e-2 h 1.3758146270818247e-2 l -1.0499637943519189e-2,6.480811006517016e-2 h 3.475742215785663e-2 l -2.896451846488052e-3,1.9188993482983346e-2 h -3.439536567704562e-2 l -6.938893903907228e-18,-1.3877787807814457e-17 Z" /></g></g><g fill-opacity="0.0"><path d="M 1.5,0.5 h 1.0 " /></g><g stroke="rgb(255,165,0)" stroke-opacity="1.0" fill="rgb(255,165,0)" fill-opacity="1.0" stroke-width="1.0e-2"><path d="M 2.5,0.5 l -1.1102230246251565e-16,-1.0 h -1.0 l -1.1102230246251565e-16,1.0 h 1.0 Z" /></g><g stroke="rgb(255,255,255)" stroke-opacity="1.0" fill-opacity="0.0" stroke-width="2.0e-2"><path d="M 2.0,-0.5 v 1.0 " /></g><g stroke="rgb(128,0,128)" stroke-opacity="1.0" fill="rgb(0,0,0)" fill-opacity="1.0" stroke-width="2.0e-2"><path d="M 2.3,5.551115123125783e-17 c 0.0,-0.16568542494923802 -0.13431457505076191,-0.3 -0.29999999999999993 -0.3c -0.16568542494923802,-1.0144971206429875e-17 -0.3,0.13431457505076191 -0.3 0.2999999999999999c -2.028994241285975e-17,0.16568542494923802 0.1343145750507619,0.3 0.2999999999999999 0.3c 0.16568542494923802,3.043491361928963e-17 0.3,-0.1343145750507619 0.3 -0.2999999999999999Z" /></g><g stroke="rgb(255,255,255)" stroke-opacity="1.0" fill="rgb(255,255,255)" fill-opacity="1.0"><path d="M 1.8782585083272991,0.11676321506154957 ZM 1.9474112961622012,8.635047067342502e-2 c 0.0,1.1585807385952208e-2 3.982621288921072e-3,1.8826937002172337e-2 3.946415640839971e-2 1.8826937002172337e-2c 5.104996379435192e-2,0.0 9.485879797248371e-2,-1.8102824040550324e-2 9.485879797248371e-2 -9.123823316437364e-2c 0.0,-5.5756698044895e-2 -2.5706010137581465e-2,-0.11911658218682114 -0.10391020999275888 -0.11911658218682114c -1.7740767559739322e-2,0.0 -3.041274438812455e-2,5.068790731354091e-3 -3.041274438812455e-2 1.774076755973932e-2v 0.1737871107892831 l -3.469446951953614e-18,2.7755575615628914e-17 ZM 1.9474112961622012,8.635047067342502e-2 ZM 1.931842867487328,-0.1167632150615496 c 1.4120202751629255e-2,0.0 3.403330919623462e-2,-7.24112961622013e-4 5.973931933381608e-2 -7.24112961622013e-4c 6.951484431571325e-2,0.0 0.12490948587979726,5.5394641564083996e-2 0.12490948587979726 0.1227371469949312c 0.0,8.906589427950759e-2 -6.734250543084722e-2,0.11223750905141201 -0.11839246922519914 0.11223750905141201c -3.729181752353367e-2,0.0 -5.249818971759595e-2,-7.24112961622013e-4 -6.58942795076032e-2 -7.24112961622013e-4c -1.3649529326574948e-2,0.0 -3.29471397538016e-2,3.620564808110065e-4 -4.706734250543085e-2 7.24112961622013e-4c -2.172338884866039e-3,-2.172338884866039e-3 -2.172338884866039e-3,-9.775524981897175e-3 0.0 -1.1947863866763215e-2c 2.534395365677046e-2,-1.0861694424330196e-3 3.149891383055757e-2,-2.896451846488052e-3 3.149891383055757e-2 -3.294713975380159e-2v -0.1451846488052136 c 0.0,-3.005068790731354e-2 -6.1549601737871116e-3,-3.186097031136857e-2 -3.149891383055757e-2 -3.294713975380159e-2c -2.172338884866039e-3,-2.172338884866039e-3 -2.172338884866039e-3,-9.775524981897175e-3 0.0 -1.1947863866763215e-2c 1.4482259232440262e-2,3.620564808110065e-4 3.377986965966691e-2,7.24112961622013e-4 4.6705286024619846e-2 7.24112961622013e-4l -1.3877787807814457e-17,-9.75781955236954e-18 Z" /></g></g><g><g><g><g fill-opacity="0.0"><path d="M 0.5,3.5 h 1.0 " /></g><g stroke="rgb(255,165,0)" stroke-opacity="1.0" fill="rgb(255,165,0)" fill-opacity="1.0" stroke-width="1.0e-2"><path d="M 1.5,3.5 l -1.1102230246251565e-16,-1.0 h -1.0 l -1.1102230246251565e-16,1.0 h 1.0 Z" /></g><g stroke="rgb(255,255,255)" stroke-opacity="1.0" fill-opacity="0.0" stroke-width="2.0e-2"><path d="M 1.0,2.5 v 1.0 " /></g><g stroke="rgb(128,0,128)" stroke-opacity="1.0" fill="rgb(0,0,0)" fill-opacity="1.0" stroke-width="2.0e-2"><path d="M 1.3,3.0 c 0.0,-0.16568542494923802 -0.13431457505076191,-0.3 -0.29999999999999993 -0.3c -0.16568542494923802,-1.0144971206429875e-17 -0.3,0.13431457505076191 -0.3 0.2999999999999999c -2.028994241285975e-17,0.16568542494923802 0.1343145750507619,0.3 0.2999999999999999 0.3c 0.16568542494923802,3.043491361928963e-17 0.3,-0.1343145750507619 0.3 -0.2999999999999999Z" /></g><g stroke="rgb(255,255,255)" stroke-opacity="1.0" fill="rgb(255,255,255)" fill-opacity="1.0"><path d="M 0.8826937002172338,3.1173062997827663 ZM 1.0119478638667632,3.120926864590876 c -7.78421433743664e-2,0.0 -0.11585807385952207,-5.2932657494569144e-2 -0.11585807385952207 -0.11585807385952207c 0.0,-3.7762490948587975e-2 1.4337436640115858e-2,-7.320782041998551e-2 3.837798696596669e-2 -9.52208544532947e-2c 2.1361332367849383e-2,-1.955104996379435e-2 4.706734250543084e-2,-3.0774800868935553e-2 7.78421433743664e-2 -3.0774800868935553e-2c 4.4532947139753795e-2,0.0 6.082548877624909e-2,1.4482259232440259e-2 7.929036929761042e-2 1.629254163649529e-2c 3.6205648081100647e-3,1.9913106444605356e-2 6.154960173787111e-3,3.7291817523533666e-2 7.965242577842143e-3 5.6118754525706006e-2c -4.091238233164374e-3,2.172338884866039e-3 -7.603186097031136e-3,3.2585083272990583e-3 -1.1947863866763215e-2 1.8102824040550324e-3c -9.413468501086169e-3,-3.113685734974656e-2 -2.9326574945691526e-2,-6.082548877624909e-2 -7.929036929761042e-2 -6.082548877624909e-2c -1.8826937002172337e-2,0.0 -3.982621288921071e-2,1.0137581462708182e-2 -5.7784214337436635e-2 3.222302679217958e-2c -1.3215061549601738e-2,1.625633598841419e-2 -2.1506154960173784e-2,4.225199131064446e-2 -2.1506154960173784e-2 7.349746560463431e-2c 0.0,5.286024619840695e-2 3.381607530774801e-2,0.10789283128167994 8.254887762490948e-2 0.10789283128167994c 3.36712527154236e-2,0.0 5.8291093410572044e-2,-1.1223750905141201e-2 8.399710354815351e-2 -3.946415640839971e-2c 3.9826212889210715e-3,0.0 6.517016654598117e-3,2.172338884866039e-3 8.32729905865315e-3 5.430847212165097e-3c -2.4619840695148443e-2,3.222302679217958e-2 -5.6842867487328017e-2,4.887762490948588e-2 -9.196234612599564e-2 4.887762490948588e-2l -5.551115123125783e-17,-2.0816681711721685e-17 Z" /></g></g><g fill-opacity="0.0"><path d="M 0.5,2.5 h 1.0 " /></g><g stroke="rgb(255,165,0)" stroke-opacity="1.0" fill="rgb(255,165,0)" fill-opacity="1.0" stroke-width="1.0e-2"><path d="M 1.5,2.5 l -1.1102230246251565e-16,-1.0 h -1.0 l -1.1102230246251565e-16,1.0 h 1.0 Z" /></g><g stroke="rgb(255,255,255)" stroke-opacity="1.0" fill-opacity="0.0" stroke-width="2.0e-2"><path d="M 1.0,1.5 v 1.0 " /></g><g stroke="rgb(128,0,128)" stroke-opacity="1.0" fill="rgb(0,0,0)" fill-opacity="1.0" stroke-width="2.0e-2"><path d="M 1.3,2.0 c 0.0,-0.16568542494923802 -0.13431457505076191,-0.3 -0.29999999999999993 -0.3c -0.16568542494923802,-1.0144971206429875e-17 -0.3,0.13431457505076191 -0.3 0.2999999999999999c -2.028994241285975e-17,0.16568542494923802 0.1343145750507619,0.3 0.2999999999999999 0.3c 0.16568542494923802,3.043491361928963e-17 0.3,-0.1343145750507619 0.3 -0.2999999999999999Z" /></g><g stroke="rgb(255,255,255)" stroke-opacity="1.0" fill="rgb(255,255,255)" fill-opacity="1.0"><path d="M 0.8983526430123099,2.1167632150615496 ZM 0.9675054308472122,1.917632150615496 v 6.66183924692252e-2 h 2.6792179580014484e-2 c 3.0050687907313543e-2,0.0 5.141202027516293e-2,-1.0861694424330194e-2 5.141202027516293e-2 -4.163649529326575e-2c 0.0,-3.6929761042722664e-2 -2.643012309920348e-2,-4.779145546705286e-2 -4.6705286024619846e-2 -4.779145546705286e-2c -3.149891383055757e-2,0.0 -3.149891383055757e-2,3.6205648081100647e-3 -3.149891383055757e-2 2.280955829109341e-2v -3.469446951953614e-18 ZM 0.9675054308472122,1.917632150615496 ZM 0.9675054308472122,1.9965604634322953 v 7.748008689355539e-2 c 0.0,2.2085445329471397e-2 4.706734250543085e-3,3.1498913830557564e-2 3.0050687907313543e-2 3.1498913830557564e-2c 5.5032585083272995e-2,0.0 6.517016654598118e-2,-2.2085445329471397e-2 6.517016654598118e-2 -4.851556842867487e-2c 0.0,-3.258508327299058e-2 -2.0637219406227373e-2,-6.046343229543808e-2 -7.023895727733527e-2 -6.046343229543808e-2h -2.498189717595945e-2 l -6.938893903907228e-18,-6.938893903907228e-18 ZM 0.9675054308472122,1.9965604634322953 ZM 0.9519370021723389,1.8832367849384504 c 1.3034033309196235e-2,0.0 3.258508327299059e-2,-7.24112961622013e-4 4.525706010137582e-2 -7.24112961622013e-4c 6.734250543084722e-2,0.0 7.78421433743664e-2,3.1498913830557564e-2 7.78421433743664e-2 5.5756698044895e-2c 0.0,1.965966690803765e-2 -1.6256335988414194e-2,3.8233164373642284e-2 -3.4395365677045625e-2 4.742939898624185e-2v 7.24112961622013e-4 c 3.149891383055757e-2,9.051412020275162e-3 5.5756698044895005e-2,2.8964518464880518e-2 5.5756698044895005e-2 6.372194062273714e-2c 0.0,3.113685734974656e-2 -1.9188993482983346e-2,6.73425054308472e-2 -9.123823316437366e-2 6.73425054308472e-2c -3.041274438812455e-2,0.0 -3.993482983345402e-2,-7.24112961622013e-4 -5.286024619840696e-2 -7.24112961622013e-4c -1.3432295438088344e-2,0.0 -3.29471397538016e-2,3.620564808110065e-4 -4.706734250543085e-2 7.24112961622013e-4c -2.172338884866039e-3,-2.172338884866039e-3 -2.172338884866039e-3,-9.775524981897175e-3 0.0 -1.1947863866763215e-2c 2.534395365677046e-2,-1.0861694424330196e-3 3.149891383055757e-2,-2.896451846488052e-3 3.149891383055757e-2 -3.294713975380159e-2v -0.1451846488052136 c 0.0,-3.005068790731354e-2 -6.1549601737871116e-3,-3.186097031136857e-2 -3.149891383055757e-2 -3.294713975380159e-2c -2.172338884866039e-3,-2.172338884866039e-3 -2.172338884866039e-3,-9.775524981897175e-3 0.0 -1.1947863866763215e-2c 1.4120202751629255e-2,3.620564808110065e-4 3.377986965966691e-2,7.24112961622013e-4 4.6705286024619846e-2 7.24112961622013e-4l 2.7755575615628914e-17,-3.7513395167998453e-17 Z" /></g></g><g fill-opacity="0.0"><path d="M 0.5,1.5 h 1.0 " /></g><g stroke="rgb(255,165,0)" stroke-opacity="1.0" fill="rgb(255,165,0)" fill-opacity="1.0" stroke-width="1.0e-2"><path d="M 1.5,1.5 l -1.1102230246251565e-16,-1.0 h -1.0 l -1.1102230246251565e-16,1.0 h 1.0 Z" /></g><g stroke="rgb(255,255,255)" stroke-opacity="1.0" fill-opacity="0.0" stroke-width="2.0e-2"><path d="M 1.0,0.5 v 1.0 " /></g><g stroke="rgb(128,0,128)" stroke-opacity="1.0" fill="rgb(0,0,0)" fill-opacity="1.0" stroke-width="2.0e-2"><path d="M 1.3,1.0 c 0.0,-0.16568542494923802 -0.13431457505076191,-0.3 -0.29999999999999993 -0.3c -0.16568542494923802,-1.0144971206429875e-17 -0.3,0.13431457505076191 -0.3 0.2999999999999999c -2.028994241285975e-17,0.16568542494923802 0.1343145750507619,0.3 0.2999999999999999 0.3c 0.16568542494923802,3.043491361928963e-17 0.3,-0.1343145750507619 0.3 -0.2999999999999999Z" /></g><g stroke="rgb(255,255,255)" stroke-opacity="1.0" fill="rgb(255,255,255)" fill-opacity="1.0"><path d="M 0.7944424330195511,1.11875452570601 ZM 0.8896632874728457,1.0162925416364952 h 6.408399710354815e-2 l -3.403330919623461e-2,-9.847936278059377e-2 h -2.172338884866039e-3 l -3.7002172338884864e-2,9.366401158580738e-2 c -1.3758146270818246e-3,3.729181752353367e-3 1.1585807385952208e-3,4.8153511947863865e-3 9.123823316437364e-3 4.8153511947863865e-3l 1.734723475976807e-18,4.336808689942018e-18 ZM 0.8896632874728457,1.0162925416364952 ZM 0.850561187545257,1.0901520637219406 c -5.6480811006517015e-3,1.4880521361332368e-2 1.1368573497465603e-2,1.6437364228819695e-2 2.4981897175959448e-2 1.7378711078928313e-2c 2.172338884866039e-3,2.172338884866039e-3 2.172338884866039e-3,9.775524981897175e-3 0.0 1.1947863866763215e-2c -1.339608979000724e-2,-3.620564808110065e-4 -3.1498913830557564e-2,-7.24112961622013e-4 -4.634322954380883e-2 -7.24112961622013e-4c -1.0970311368573496e-2,0.0 -2.280955829109341e-2,3.620564808110065e-4 -3.222302679217958e-2 7.24112961622013e-4c -2.172338884866039e-3,-2.172338884866039e-3 -2.172338884866039e-3,-9.775524981897175e-3 0.0 -1.1947863866763215e-2c 1.5749456915278782e-2,-1.0861694424330196e-3 2.679217958001448e-2,-3.2585083272990583e-3 3.620564808110065e-2 -2.570601013758146e-2l 8.218682114409848e-2,-0.19406227371469947 c 4.706734250543084e-3,0.0 1.4482259232440259e-2,-3.9826212889210715e-3 1.9913106444605356e-2 -7.241129616220129e-3l 7.458363504706733e-2,0.20709630702389573 c 6.299782766111512e-3,1.7451122375090514e-2 1.8537291817523532e-2,1.8645908761766833e-2 3.258508327299058e-2 1.9913106444605356e-2c 2.172338884866039e-3,2.172338884866039e-3 2.172338884866039e-3,9.775524981897175e-3 0.0 1.1947863866763215e-2c -1.2671976828385226e-2,-3.620564808110065e-4 -2.6430123099203475e-2,-7.24112961622013e-4 -4.127443881245474e-2 -7.24112961622013e-4c -1.4120202751629254e-2,0.0 -3.403330919623461e-2,3.620564808110065e-4 -4.742939898624185e-2 7.24112961622013e-4c -2.172338884866039e-3,-2.172338884866039e-3 -2.172338884866039e-3,-9.775524981897175e-3 0.0 -1.1947863866763215e-2c 1.723388848660391e-2,-1.230992034757422e-3 3.1064446053584355e-2,-2.353367125271542e-3 2.679217958001448e-2 -1.4844315713251266e-2l -2.0999275887038378e-2,-6.11875452570601e-2 h -7.639391745112237e-2 c -8.689355539464157e-3,0.0 -1.0861694424330194e-2,1.448225923244026e-3 -1.2671976828385226e-2 6.154960173787111e-3l -1.9913106444605363e-2,5.249818971759592e-2 ZM 1.0460716871832005,1.11875452570601 ZM 1.1470854453294714,1.0300506879073135 l 6.517016654598117e-3,-4.163649529326575e-2 h -4.091238233164373e-2 l -6.8790731354091235e-3,4.163649529326575e-2 h 4.127443881245474e-2 h -6.938893903907228e-18 ZM 1.1470854453294714,1.0300506879073135 ZM 1.1673606082548877,0.9884141926140477 l -6.8790731354091235e-3,4.163649529326575e-2 h 3.439536567704562e-2 l -2.5343953656770456e-3,1.9188993482983346e-2 h -3.403330919623461e-2 l -1.0861694424330194e-2,6.444605358435916e-2 h -1.3758146270818247e-2 l 9.775524981897175e-3,-6.444605358435916e-2 h -4.055032585083273e-2 l -1.0499637943519189e-2,6.444605358435916e-2 h -1.339608979000724e-2 l 1.0137581462708182e-2,-6.444605358435916e-2 h -3.36712527154236e-2 l 2.896451846488052e-3,-1.9188993482983346e-2 h 3.403330919623461e-2 l 6.517016654598117e-3,-4.163649529326575e-2 h -3.36712527154236e-2 l 2.896451846488052e-3,-1.9188993482983346e-2 h 3.36712527154236e-2 l 1.0499637943519189e-2,-6.480811006517016e-2 h 1.3758146270818247e-2 l -1.0861694424330194e-2,6.480811006517016e-2 h 4.127443881245474e-2 l 1.0137581462708182e-2,-6.480811006517016e-2 h 1.3758146270818247e-2 l -1.0499637943519189e-2,6.480811006517016e-2 h 3.475742215785663e-2 l -2.896451846488052e-3,1.9188993482983346e-2 h -3.439536567704562e-2 l -6.938893903907228e-18,-1.3877787807814457e-17 Z" /></g></g><g fill-opacity="0.0"><path d="M 0.5,0.5 h 1.0 " /></g><g stroke="rgb(255,165,0)" stroke-opacity="1.0" fill="rgb(255,165,0)" fill-opacity="1.0" stroke-width="1.0e-2"><path d="M 1.5,0.5 l -1.1102230246251565e-16,-1.0 h -1.0 l -1.1102230246251565e-16,1.0 h 1.0 Z" /></g><g stroke="rgb(255,255,255)" stroke-opacity="1.0" fill-opacity="0.0" stroke-width="2.0e-2"><path d="M 1.0,-0.5 v 1.0 " /></g><g stroke="rgb(128,0,128)" stroke-opacity="1.0" fill="rgb(0,0,0)" fill-opacity="1.0" stroke-width="2.0e-2"><path d="M 1.3,5.551115123125783e-17 c 0.0,-0.16568542494923802 -0.13431457505076191,-0.3 -0.29999999999999993 -0.3c -0.16568542494923802,-1.0144971206429875e-17 -0.3,0.13431457505076191 -0.3 0.2999999999999999c -2.028994241285975e-17,0.16568542494923802 0.1343145750507619,0.3 0.2999999999999999 0.3c 0.16568542494923802,3.043491361928963e-17 0.3,-0.1343145750507619 0.3 -0.2999999999999999Z" /></g><g stroke="rgb(255,255,255)" stroke-opacity="1.0" fill="rgb(255,255,255)" fill-opacity="1.0"><path d="M 0.8747284576393918,0.11875452570601011 ZM 0.9699493120926864,1.629254163649528e-2 h 6.408399710354815e-2 l -3.403330919623461e-2,-9.847936278059377e-2 h -2.172338884866039e-3 l -3.7002172338884864e-2,9.366401158580738e-2 c -1.3758146270818246e-3,3.729181752353367e-3 1.1585807385952208e-3,4.8153511947863865e-3 9.123823316437364e-3 4.8153511947863865e-3l 1.734723475976807e-18,4.336808689942018e-18 ZM 0.9699493120926864,1.629254163649528e-2 ZM 0.9308472121650977,9.01520637219406e-2 c -5.6480811006517015e-3,1.4880521361332368e-2 1.1368573497465603e-2,1.6437364228819695e-2 2.4981897175959448e-2 1.7378711078928313e-2c 2.172338884866039e-3,2.172338884866039e-3 2.172338884866039e-3,9.775524981897175e-3 0.0 1.1947863866763215e-2c -1.339608979000724e-2,-3.620564808110065e-4 -3.1498913830557564e-2,-7.24112961622013e-4 -4.634322954380883e-2 -7.24112961622013e-4c -1.0970311368573496e-2,0.0 -2.280955829109341e-2,3.620564808110065e-4 -3.222302679217958e-2 7.24112961622013e-4c -2.172338884866039e-3,-2.172338884866039e-3 -2.172338884866039e-3,-9.775524981897175e-3 0.0 -1.1947863866763215e-2c 1.5749456915278782e-2,-1.0861694424330196e-3 2.679217958001448e-2,-3.2585083272990583e-3 3.620564808110065e-2 -2.570601013758146e-2l 8.218682114409848e-2,-0.19406227371469947 c 4.706734250543084e-3,0.0 1.4482259232440259e-2,-3.9826212889210715e-3 1.9913106444605356e-2 -7.241129616220129e-3l 7.458363504706733e-2,0.20709630702389573 c 6.299782766111512e-3,1.7451122375090514e-2 1.8537291817523532e-2,1.8645908761766833e-2 3.258508327299058e-2 1.9913106444605356e-2c 2.172338884866039e-3,2.172338884866039e-3 2.172338884866039e-3,9.775524981897175e-3 0.0 1.1947863866763215e-2c -1.2671976828385226e-2,-3.620564808110065e-4 -2.6430123099203475e-2,-7.24112961622013e-4 -4.127443881245474e-2 -7.24112961622013e-4c -1.4120202751629254e-2,0.0 -3.403330919623461e-2,3.620564808110065e-4 -4.742939898624185e-2 7.24112961622013e-4c -2.172338884866039e-3,-2.172338884866039e-3 -2.172338884866039e-3,-9.775524981897175e-3 0.0 -1.1947863866763215e-2c 1.723388848660391e-2,-1.230992034757422e-3 3.1064446053584355e-2,-2.353367125271542e-3 2.679217958001448e-2 -1.4844315713251266e-2l -2.0999275887038378e-2,-6.11875452570601e-2 h -7.639391745112237e-2 c -8.689355539464157e-3,0.0 -1.0861694424330194e-2,1.448225923244026e-3 -1.2671976828385226e-2 6.154960173787111e-3l -1.9913106444605363e-2,5.249818971759592e-2 Z" /></g></g><g><g><g><g fill-opacity="0.0"><path d="M -0.5,3.5 h 1.0 " /></g><g stroke="rgb(255,165,0)" stroke-opacity="1.0" fill="rgb(255,165,0)" fill-opacity="1.0" stroke-width="1.0e-2"><path d="M 0.5000000000000001,3.5 l -1.1102230246251565e-16,-1.0 h -1.0 l -1.1102230246251565e-16,1.0 h 1.0 Z" /></g><g stroke="rgb(255,255,255)" stroke-opacity="1.0" fill-opacity="0.0" stroke-width="2.0e-2"><path d="M 0.0,2.5 v 1.0 " /></g><g stroke="rgb(128,0,128)" stroke-opacity="1.0" fill="rgb(0,0,0)" fill-opacity="1.0" stroke-width="2.0e-2"><path d="M 0.3,3.0 c 0.0,-0.16568542494923802 -0.13431457505076191,-0.3 -0.29999999999999993 -0.3c -0.16568542494923802,-1.0144971206429875e-17 -0.3,0.13431457505076191 -0.3 0.2999999999999999c -2.028994241285975e-17,0.16568542494923802 0.1343145750507619,0.3 0.2999999999999999 0.3c 0.16568542494923802,3.043491361928963e-17 0.3,-0.1343145750507619 0.3 -0.2999999999999999Z" /></g><g stroke="rgb(255,255,255)" stroke-opacity="1.0" fill="rgb(255,255,255)" fill-opacity="1.0"><path d="M -0.127172338884866,3.1173062997827663 ZM 9.32295438088343e-3,2.879073135409124 c 4.018826937002172e-2,0.0 5.358435916002896e-2,1.2671976828385226e-2 7.530774800868935e-2 1.629254163649529e-2c 5.792903692976104e-3,2.6068066618392467e-2 7.422157856625633e-3,4.055032585083273e-2 8.32729905865315e-3 5.5756698044895e-2c -4.091238233164374e-3,1.7016690803765386e-3 -7.85662563359884e-3,2.4257820419985514e-3 -1.1947863866763215e-2 2.172338884866039e-3c -9.413468501086169e-3,-3.113685734974656e-2 -2.4257784214337434e-2,-6.11875452570601e-2 -7.675597393193338e-2 -6.11875452570601e-2c -4.217958001448226e-2,0.0 -8.32729905865315e-2,4.3446777697320776e-2 -8.32729905865315e-2 0.10680666183924692c 0.0,4.779145546705286e-2 3.0412744388124545e-2,0.10897900072411296 8.761766835626357e-2 0.10897900072411296c 1.955104996379435e-2,0.0 4.3808834178131785e-2,-2.172338884866039e-3 5.6118754525706006e-2 -1.3758146270818247e-2v -5.5394641564083996e-2 c 0.0,-1.451846488052136e-2 -9.811730629978277e-3,-1.5858073859522082e-2 -2.968863142650253e-2 -1.7378711078928313e-2c -2.172338884866039e-3,-2.172338884866039e-3 -2.172338884866039e-3,-1.0861694424330194e-2 0.0 -1.3034033309196233e-2c 1.5930485155684286e-2,3.620564808110065e-4 3.276611151339609e-2,7.24112961622013e-4 4.4895003620564804e-2 7.24112961622013e-4c 1.4482259232440259e-2,0.0 2.353367125271542e-2,-3.620564808110065e-4 3.222302679217958e-2 -7.24112961622013e-4c 2.172338884866039e-3,2.172338884866039e-3 2.172338884866039e-3,1.0861694424330194e-2 0.0 1.3034033309196233e-2c -1.0499637943519189e-2,1.0861694424330196e-3 -1.66545981173063e-2,4.634322954380883e-3 -1.66545981173063e-2 1.7378711078928313e-2v 4.1998551774076756e-2 c 0.0,3.9826212889210715e-3 1.8102824040550324e-3,6.8790731354091235e-3 5.792903692976104e-3 1.0137581462708182e-2c -2.4619840695148443e-2,2.0999275887038378e-2 -5.8291093410572044e-2,3.005068790731354e-2 -0.10101375814627081 3.005068790731354e-2c -6.915278783490224e-2,0.0 -0.11404779145546705,-4.967414916727009e-2 -0.11404779145546705 -0.11477190441708905c 0.0,-7.965242577842142e-2 6.263577118030413e-2,-0.1270818247646633 0.12309920347574221 -0.1270818247646633h 1.3877787807814457e-17 Z" /></g></g><g fill-opacity="0.0"><path d="M -0.5,2.5 h 1.0 " /></g><g stroke="rgb(255,165,0)" stroke-opacity="1.0" fill="rgb(255,165,0)" fill-opacity="1.0" stroke-width="1.0e-2"><path d="M 0.5000000000000001,2.5 l -1.1102230246251565e-16,-1.0 h -1.0 l -1.1102230246251565e-16,1.0 h 1.0 Z" /></g><g stroke="rgb(255,255,255)" stroke-opacity="1.0" fill-opacity="0.0" stroke-width="2.0e-2"><path d="M 0.0,1.5 v 1.0 " /></g><g stroke="rgb(128,0,128)" stroke-opacity="1.0" fill="rgb(0,0,0)" fill-opacity="1.0" stroke-width="2.0e-2"><path d="M 0.3,2.0 c 0.0,-0.16568542494923802 -0.13431457505076191,-0.3 -0.29999999999999993 -0.3c -0.16568542494923802,-1.0144971206429875e-17 -0.3,0.13431457505076191 -0.3 0.2999999999999999c -2.028994241285975e-17,0.16568542494923802 0.1343145750507619,0.3 0.2999999999999999 0.3c 0.16568542494923802,3.043491361928963e-17 0.3,-0.1343145750507619 0.3 -0.2999999999999999Z" /></g><g stroke="rgb(255,255,255)" stroke-opacity="1.0" fill="rgb(255,255,255)" fill-opacity="1.0"><path d="M -0.1695329471397538,2.1171252715423607 ZM -6.707096307023895e-2,2.0001810282404056 h -3.367125271542361e-2 v 7.277335264301231e-2 c 0.0,3.005068790731354e-2 6.1549601737871116e-3,3.186097031136857e-2 3.149891383055757e-2 3.294713975380159e-2c 2.172338884866039e-3,2.172338884866039e-3 2.172338884866039e-3,9.775524981897175e-3 0.0 1.1947863866763215e-2c -1.267197682838523e-2,-3.620564808110065e-4 -3.041274438812455e-2,-7.24112961622013e-4 -4.6705286024619846e-2 -7.24112961622013e-4c -1.6292541636495295e-2,0.0 -3.4395365677045625e-2,3.620564808110065e-4 -4.706734250543085e-2 7.24112961622013e-4c -2.172338884866039e-3,-2.172338884866039e-3 -2.172338884866039e-3,-9.775524981897175e-3 0.0 -1.1947863866763215e-2c 2.534395365677046e-2,-1.0861694424330196e-3 3.149891383055757e-2,-2.896451846488052e-3 3.149891383055757e-2 -3.294713975380159e-2v -0.1451846488052136 c 0.0,-3.005068790731354e-2 -6.1549601737871116e-3,-3.186097031136857e-2 -3.149891383055757e-2 -3.294713975380159e-2c -2.172338884866039e-3,-2.172338884866039e-3 -2.172338884866039e-3,-9.775524981897175e-3 0.0 -1.1947863866763215e-2c 1.4482259232440262e-2,3.620564808110065e-4 3.5119478638667635e-2,7.24112961622013e-4 4.6705286024619846e-2 7.24112961622013e-4h 9.243301955104997e-2 c 8.942795076031861e-3,0.0 1.0680666183924693e-2,-2.1722519913106446e-4 1.701665459811731e-2 -1.448225923244026e-3c 8.68942795076032e-4,0.0 1.3034069514844318e-3,2.534438812454743e-4 1.4482259232440262e-3 1.0861694424330196e-3c 5.068863142650254e-4,2.751622013034033e-3 5.973931933381608e-3,3.7653874004344674e-2 7.856625633598843e-3 5.249818971759594e-2c -2.8964518464880524e-3,1.0861694424330196e-3 -6.879073135409124e-3,1.8102824040550324e-3 -1.1223750905141203e-2 1.8102824040550324e-3c -7.965242577842145e-3,-2.4981897175959448e-2 -1.701665459811731e-2,-3.946415640839971e-2 -5.5394641564084e-2 -3.946415640839971e-2h -1.6292541636495295e-2 c -1.593048515568429e-2,0.0 -2.0275162925416368e-2,3.6205648081100647e-3 -2.0275162925416368e-2 2.3171614771904415e-2v 6.517016654598116e-2 h 3.367125271542361e-2 c 3.0774800868935557e-2,0.0 3.186097031136858e-2,-4.706734250543084e-3 3.29471397538016e-2 -2.4619840695148443e-2c 2.172338884866039e-3,-2.172338884866039e-3 9.775524981897177e-3,-2.172338884866039e-3 1.1947863866763216e-2 0.0c -3.6205648081100655e-4,9.413468501086169e-3 -7.241129616220131e-4,1.900796524257784e-2 -7.241129616220131e-4 3.113685734974656e-2c 0.0,1.2418537291817522e-2 3.6205648081100655e-4,2.280955829109341e-2 7.241129616220131e-4 3.186097031136857e-2c -2.172338884866039e-3,2.172338884866039e-3 -9.775524981897177e-3,2.172338884866039e-3 -1.1947863866763216e-2 0.0c -1.0861694424330196e-3,-1.629254163649529e-2 -2.172338884866039e-3,-2.4619840695148443e-2 -3.29471397538016e-2 -2.4619840695148443e-2h -6.938893903907228e-18 ZM 6.06444605358436e-3,2.1171252715423607 ZM 0.1070782041998552,2.028421433743664 l 6.5170166545981175e-3,-4.163649529326575e-2 h -4.091238233164374e-2 l -6.879073135409124e-3,4.163649529326575e-2 h 4.1274438812454746e-2 h -6.938893903907228e-18 ZM 0.1070782041998552,2.028421433743664 ZM 0.12735336712527157,1.9867849384503982 l -6.879073135409124e-3,4.163649529326575e-2 h 3.4395365677045625e-2 l -2.534395365677046e-3,1.9188993482983346e-2 h -3.403330919623462e-2 l -1.0861694424330196e-2,6.444605358435916e-2 h -1.3758146270818249e-2 l 9.775524981897177e-3,-6.444605358435916e-2 h -4.0550325850832736e-2 l -1.0499637943519189e-2,6.444605358435916e-2 h -1.3396089790007242e-2 l 1.0137581462708184e-2,-6.444605358435916e-2 h -3.367125271542361e-2 l 2.8964518464880524e-3,-1.9188993482983346e-2 h 3.403330919623462e-2 l 6.5170166545981175e-3,-4.163649529326575e-2 h -3.367125271542361e-2 l 2.8964518464880524e-3,-1.9188993482983346e-2 h 3.367125271542361e-2 l 1.0499637943519189e-2,-6.480811006517016e-2 h 1.3758146270818249e-2 l -1.0861694424330196e-2,6.480811006517016e-2 h 4.1274438812454746e-2 l 1.0137581462708184e-2,-6.480811006517016e-2 h 1.3758146270818249e-2 l -1.0499637943519189e-2,6.480811006517016e-2 h 3.475742215785663e-2 l -2.8964518464880524e-3,1.9188993482983346e-2 h -3.4395365677045625e-2 l -1.3877787807814457e-17,-1.3877787807814457e-17 Z" /></g></g><g fill-opacity="0.0"><path d="M -0.5,1.5 h 1.0 " /></g><g stroke="rgb(255,165,0)" stroke-opacity="1.0" fill="rgb(255,165,0)" fill-opacity="1.0" stroke-width="1.0e-2"><path d="M 0.5000000000000001,1.5 l -1.1102230246251565e-16,-1.0 h -1.0 l -1.1102230246251565e-16,1.0 h 1.0 Z" /></g><g stroke="rgb(255,255,255)" stroke-opacity="1.0" fill-opacity="0.0" stroke-width="2.0e-2"><path d="M 0.0,0.5 v 1.0 " /></g><g stroke="rgb(128,0,128)" stroke-opacity="1.0" fill="rgb(0,0,0)" fill-opacity="1.0" stroke-width="2.0e-2"><path d="M 0.3,1.0 c 0.0,-0.16568542494923802 -0.13431457505076191,-0.3 -0.29999999999999993 -0.3c -0.16568542494923802,-1.0144971206429875e-17 -0.3,0.13431457505076191 -0.3 0.2999999999999999c -2.028994241285975e-17,0.16568542494923802 0.1343145750507619,0.3 0.2999999999999999 0.3c 0.16568542494923802,3.043491361928963e-17 0.3,-0.1343145750507619 0.3 -0.2999999999999999Z" /></g><g stroke="rgb(255,255,255)" stroke-opacity="1.0" fill="rgb(255,255,255)" fill-opacity="1.0"><path d="M -8.843229543808835e-2,1.1171252715423605 ZM 1.4029688631426507e-2,1.0001810282404056 h -3.367125271542361e-2 v 7.277335264301231e-2 c 0.0,3.005068790731354e-2 6.1549601737871116e-3,3.186097031136857e-2 3.149891383055757e-2 3.294713975380159e-2c 2.172338884866039e-3,2.172338884866039e-3 2.172338884866039e-3,9.775524981897175e-3 0.0 1.1947863866763215e-2c -1.267197682838523e-2,-3.620564808110065e-4 -3.041274438812455e-2,-7.24112961622013e-4 -4.6705286024619846e-2 -7.24112961622013e-4c -1.6292541636495295e-2,0.0 -3.4395365677045625e-2,3.620564808110065e-4 -4.706734250543085e-2 7.24112961622013e-4c -2.172338884866039e-3,-2.172338884866039e-3 -2.172338884866039e-3,-9.775524981897175e-3 0.0 -1.1947863866763215e-2c 2.534395365677046e-2,-1.0861694424330196e-3 3.149891383055757e-2,-2.896451846488052e-3 3.149891383055757e-2 -3.294713975380159e-2v -0.1451846488052136 c 0.0,-3.005068790731354e-2 -6.1549601737871116e-3,-3.186097031136857e-2 -3.149891383055757e-2 -3.294713975380159e-2c -2.172338884866039e-3,-2.172338884866039e-3 -2.172338884866039e-3,-9.775524981897175e-3 0.0 -1.1947863866763215e-2c 1.4482259232440262e-2,3.620564808110065e-4 3.5119478638667635e-2,7.24112961622013e-4 4.6705286024619846e-2 7.24112961622013e-4h 9.243301955104997e-2 c 8.942795076031861e-3,0.0 1.0680666183924693e-2,-2.1722519913106446e-4 1.701665459811731e-2 -1.448225923244026e-3c 8.68942795076032e-4,0.0 1.3034069514844318e-3,2.534438812454743e-4 1.4482259232440262e-3 1.0861694424330196e-3c 5.068863142650254e-4,2.751622013034033e-3 5.973931933381608e-3,3.7653874004344674e-2 7.856625633598843e-3 5.249818971759594e-2c -2.8964518464880524e-3,1.0861694424330196e-3 -6.879073135409124e-3,1.8102824040550324e-3 -1.1223750905141203e-2 1.8102824040550324e-3c -7.965242577842145e-3,-2.4981897175959448e-2 -1.701665459811731e-2,-3.946415640839971e-2 -5.5394641564084e-2 -3.946415640839971e-2h -1.6292541636495295e-2 c -1.593048515568429e-2,0.0 -2.0275162925416368e-2,3.6205648081100647e-3 -2.0275162925416368e-2 2.3171614771904415e-2v 6.517016654598116e-2 h 3.367125271542361e-2 c 3.0774800868935557e-2,0.0 3.186097031136858e-2,-4.706734250543084e-3 3.29471397538016e-2 -2.4619840695148443e-2c 2.172338884866039e-3,-2.172338884866039e-3 9.775524981897177e-3,-2.172338884866039e-3 1.1947863866763216e-2 0.0c -3.6205648081100655e-4,9.413468501086169e-3 -7.241129616220131e-4,1.900796524257784e-2 -7.241129616220131e-4 3.113685734974656e-2c 0.0,1.2418537291817522e-2 3.6205648081100655e-4,2.280955829109341e-2 7.241129616220131e-4 3.186097031136857e-2c -2.172338884866039e-3,2.172338884866039e-3 -9.775524981897177e-3,2.172338884866039e-3 -1.1947863866763216e-2 0.0c -1.0861694424330196e-3,-1.629254163649529e-2 -2.172338884866039e-3,-2.4619840695148443e-2 -3.29471397538016e-2 -2.4619840695148443e-2h -6.938893903907228e-18 Z" /></g></g><g fill-opacity="0.0"><path d="M -0.5,0.5 h 1.0 " /></g><g stroke="rgb(255,165,0)" stroke-opacity="1.0" fill="rgb(255,165,0)" fill-opacity="1.0" stroke-width="1.0e-2"><path d="M 0.5000000000000001,0.5 l -1.1102230246251565e-16,-1.0 h -1.0 l -1.1102230246251565e-16,1.0 h 1.0 Z" /></g><g stroke="rgb(255,255,255)" stroke-opacity="1.0" fill-opacity="0.0" stroke-width="2.0e-2"><path d="M 0.0,-0.5 v 1.0 " /></g><g stroke="rgb(128,0,128)" stroke-opacity="1.0" fill="rgb(0,0,0)" fill-opacity="1.0" stroke-width="2.0e-2"><path d="M 0.3,5.551115123125783e-17 c 0.0,-0.16568542494923802 -0.13431457505076191,-0.3 -0.29999999999999993 -0.3c -0.16568542494923802,-1.0144971206429875e-17 -0.3,0.13431457505076191 -0.3 0.2999999999999999c -2.028994241285975e-17,0.16568542494923802 0.1343145750507619,0.3 0.2999999999999999 0.3c 0.16568542494923802,3.043491361928963e-17 0.3,-0.1343145750507619 0.3 -0.2999999999999999Z" /></g><g stroke="rgb(255,255,255)" stroke-opacity="1.0" fill="rgb(255,255,255)" fill-opacity="1.0"><path d="M -9.802679217958e-2,0.11712527154236059 ZM 3.711078928312822e-3,-1.3577118030412741e-2 c 3.0774800868935553e-2,0.0 3.186097031136857e-2,-4.706734250543084e-3 3.294713975380159e-2 -2.4619840695148443e-2c 2.172338884866039e-3,-2.172338884866039e-3 9.775524981897175e-3,-2.172338884866039e-3 1.1947863866763215e-2 0.0c -3.620564808110065e-4,8.689355539464157e-3 -7.24112961622013e-4,2.0999275887038378e-2 -7.24112961622013e-4 3.113685734974656e-2c 0.0,1.2418537291817522e-2 3.620564808110065e-4,2.2447501810282402e-2 7.24112961622013e-4 3.186097031136857e-2c -2.172338884866039e-3,2.172338884866039e-3 -9.775524981897175e-3,2.172338884866039e-3 -1.1947863866763215e-2 0.0c -1.0861694424330196e-3,-1.629254163649529e-2 -2.172338884866039e-3,-2.4619840695148443e-2 -3.294713975380159e-2 -2.4619840695148443e-2h -3.294713975380159e-2 v 8.001448225923244e-2 c 0.0,1.7016654598117305e-2 5.068790731354091e-3,2.280955829109341e-2 2.0275162925416364e-2 2.280955829109341e-2h 4.1998551774076756e-2 c 2.7516292541636494e-2,0.0 4.018826937002172e-2,-2.1361332367849383e-2 4.742939898624185e-2 -4.742939898624185e-2c 4.742939898624185e-3,-1.1585807385952208e-3 8.90658942795076e-3,-3.25848660391021e-4 1.2671976828385226e-2 1.8102824040550324e-3c -2.896451846488052e-3,1.8464880521361332e-2 -8.32729905865315e-3,4.236060825488776e-2 -1.339608979000724e-2 6.046343229543808e-2c 0.0,0.0 -2.8964518464880518e-2,-7.24112961622013e-4 -4.634322954380883e-2 -7.24112961622013e-4h -7.78421433743664e-2 c -1.1947863866763215e-2,0.0 -3.36712527154236e-2,3.620564808110065e-4 -4.706734250543084e-2 7.24112961622013e-4c -2.172338884866039e-3,-2.172338884866039e-3 -2.172338884866039e-3,-9.775524981897175e-3 0.0 -1.1947863866763215e-2c 2.5343953656770453e-2,-1.0861694424330196e-3 3.1498913830557564e-2,-2.896451846488052e-3 3.1498913830557564e-2 -3.294713975380159e-2v -0.1451846488052136 c 0.0,-3.005068790731354e-2 -6.154960173787111e-3,-3.186097031136857e-2 -3.1498913830557564e-2 -3.294713975380159e-2c -2.172338884866039e-3,-2.172338884866039e-3 -2.172338884866039e-3,-9.775524981897175e-3 0.0 -1.1947863866763215e-2c 1.4482259232440259e-2,3.620564808110065e-4 3.566256335988414e-2,7.24112961622013e-4 4.670528602461984e-2 7.24112961622013e-4h 9.232440260680666e-2 c 8.689355539464157e-3,0.0 1.1585807385952208e-2,-3.620564808110065e-4 1.774076755973932e-2 -1.448225923244026e-3c 1.0861694424330196e-3,0.0 1.448225923244026e-3,3.620564808110065e-4 1.448225923244026e-3 1.0861694424330196e-3c 7.24112961622013e-4,2.896451846488052e-3 6.154960173787111e-3,3.7653874004344674e-2 7.965242577842143e-3 5.249818971759594e-2c -3.548149891383055e-3,1.7016690803765386e-3 -7.458363504706734e-3,2.461980448950036e-3 -1.1947863866763215e-2 1.8102824040550324e-3c -7.965242577842143e-3,-2.4981897175959448e-2 -1.3758146270818247e-2,-3.946415640839971e-2 -4.091238233164373e-2 -3.946415640839971e-2h -2.7154236060825485e-2 c -1.955104996379435e-2,0.0 -2.389572773352643e-2,7.241129616220129e-3 -2.389572773352643e-2 2.3171614771904415e-2v 6.517016654598116e-2 h 3.294713975380159e-2 l -2.0816681711721685e-17,1.3877787807814457e-17 Z" /></g></g></g></g></svg>