<?xml version="1.0" encoding="UTF-8"?>
<!DOCTYPE svg PUBLIC "-//W3C//DTD SVG 1.1//EN"
    "http://www.w3.org/Graphics/SVG/1.1/DTD/svg11.dtd">
<svg xmlns="http://www.w3.org/2000/svg" xmlns:xlink="http://www.w3.org/1999/xlink" version="1.1" width="840.0" height="200.0" font-size="1" viewBox="0 0 840 200"><g><g stroke="rgb(0,0,0)" stroke-opacity="1.0" fill="rgb(0,0,0)" fill-opacity="0.0" stroke-width="2.0" stroke-linecap="butt" stroke-linejoin="miter" font-size="1.0em" stroke-miterlimit="10.0"><g transform="matrix(1.0,0.0,0.0,1.0,20.0,0.0)"><g><g><g><g><g fill="rgb(255,255,255)" fill-opacity="1.0"><path d="M 820.0,200.0 l -4.440892098500626e-15,-200.0 h -40.0 l -4.440892098500626e-15,200.0 h 40.000000000000014 Z" /></g><g fill="rgb(255,255,255)" fill-opacity="1.0"><path d="M 780.0,200.0 l -4.440892098500626e-15,-200.0 h -40.0 l -4.440892098500626e-15,200.0 h 40.000000000000014 Z" /></g><g fill="rgb(128,128,128)" fill-opacity="1.0"><path d="M 790.0,100.0 l -2.220446049250313e-15,-100.0 h -20.0 l -2.220446049250313e-15,100.0 h 20.000000000000007 Z" /></g></g><g fill="rgb(255,255,255)" fill-opacity="1.0"><path d="M 740.0,200.0 l -4.440892098500626e-15,-200.0 h -40.0 l -4.440892098500626e-15,200.0 h 40.000000000000014 Z" /></g><g fill="rgb(128,128,128)" fill-opacity="1.0"><path d="M 750.0,100.0 l -2.220446049250313e-15,-100.0 h -20.0 l -2.220446049250313e-15,100.0 h 20.000000000000007 Z" /></g></g><g fill="rgb(255,255,255)" fill-opacity="1.0"><path d="M 700.0,200.0 l -4.440892098500626e-15,-200.0 h -40.0 l -4.440892098500626e-15,200.0 h 40.000000000000014 Z" /></g><g fill="rgb(128,128,128)" fill-opacity="1.0"><path d="M 710.0,100.0 l -2.220446049250313e-15,-100.0 h -20.0 l -2.220446049250313e-15,100.0 h 20.000000000000007 Z" /></g></g><g><g fill="rgb(255,255,255)" fill-opacity="1.0"><path d="M 660.0,200.0 l -4.440892098500626e-15,-200.0 h -40.0 l -4.440892098500626e-15,200.0 h 40.000000000000014 Z" /></g><g fill="rgb(255,255,255)" fill-opacity="1.0"><path d="M 620.0,200.0 l -4.440892098500626e-15,-200.0 h -40.0 l -4.440892098500626e-15,200.0 h 40.000000000000014 Z" /></g><g fill="rgb(128,128,128)" fill-opacity="1.0"><path d="M 630.0,100.0 l -2.220446049250313e-15,-100.0 h -20.0 l -2.220446049250313e-15,100.0 h 20.000000000000007 Z" /></g></g><g fill="rgb(255,255,255)" fill-opacity="1.0"><path d="M 580.0,200.0 l -4.440892098500626e-15,-200.0 h -40.0 l -4.440892098500626e-15,200.0 h 40.000000000000014 Z" /></g><g fill="rgb(128,128,128)" fill-opacity="1.0"><path d="M 590.0,100.0 l -2.220446049250313e-15,-100.0 h -20.0 l -2.220446049250313e-15,100.0 h 20.000000000000007 Z" /></g></g><g><g><g><g><g fill="rgb(255,255,255)" fill-opacity="1.0"><path d="M 540.0,200.0 l -4.440892098500626e-15,-200.0 h -40.0 l -4.440892098500626e-15,200.0 h 40.000000000000014 Z" /></g><g fill="rgb(255,255,255)" fill-opacity="1.0"><path d="M 500.0,200.0 l -4.440892098500626e-15,-200.0 h -40.0 l -4.440892098500626e-15,200.0 h 40.000000000000014 Z" /></g><g fill="rgb(128,128,128)" fill-opacity="1.0"><path d="M 510.0,100.0 l -2.220446049250313e-15,-100.0 h -20.0 l -2.220446049250313e-15,100.0 h 20.000000000000007 Z" /></g></g><g fill="rgb(255,255,255)" fill-opacity="1.0"><path d="M 460.0,200.0 l -4.440892098500626e-15,-200.0 h -40.0 l -4.440892098500626e-15,200.0 h 40.000000000000014 Z" /></g><g fill="rgb(128,128,128)" fill-opacity="1.0"><path d="M 470.0,100.0 l -2.220446049250313e-15,-100.0 h -20.0 l -2.220446049250313e-15,100.0 h 20.000000000000007 Z" /></g></g><g fill="rgb(255,255,255)" fill-opacity="1.0"><path d="M 420.0,200.0 l -4.440892098500626e-15,-200.0 h -40.0 l -4.440892098500626e-15,200.0 h 40.000000000000014 Z" /></g><g fill="rgb(128,128,128)" fill-opacity="1.0"><path d="M 430.0,100.0 l -2.220446049250313e-15,-100.0 h -20.0 l -2.220446049250313e-15,100.0 h 20.000000000000007 Z" /></g></g><g><g fill="rgb(255,255,255)" fill-opacity="1.0"><path d="M 380.0,200.0 l -4.440892098500626e-15,-200.0 h -40.0 l -4.440892098500626e-15,200.0 h 40.000000000000014 Z" /></g><g fill="rgb(255,255,255)" fill-opacity="1.0"><path d="M 340.0,200.0 l -4.440892098500626e-15,-200.0 h -40.0 l -4.440892098500626e-15,200.0 h 40.000000000000014 Z" /></g><g fill="rgb(128,128,128)" fill-opacity="1.0"><path d="M 350.0,100.0 l -2.220446049250313e-15,-100.0 h -20.0 l -2.220446049250313e-15,100.0 h 20.000000000000007 Z" /></g></g><g fill="rgb(255,255,255)" fill-opacity="1.0"><path d="M 300.0,200.0 l -4.440892098500626e-15,-200.0 h -40.0 l -4.440892098500626e-15,200.0 h 40.000000000000014 Z" /></g><g fill="rgb(128,128,128)" fill-opacity="1.0"><path d="M 310.0,100.0 l -2.220446049250313e-15,-100.0 h -20.0 l -2.220446049250313e-15,100.0 h 20.000000000000007 Z" /></g></g><g><g><g><g fill="rgb(255,255,255)" fill-opacity="1.0"><path d="M 260.0,200.0 l -4.440892098500626e-15,-200.0 h -40.0 l -4.440892098500626e-15,200.0 h 40.000000000000014 Z" /></g><g fill="rgb(255,255,255)" fill-opacity="1.0"><path d="M 220.0,200.0 l -4.440892098500626e-15,-200.0 h -40.0 l -4.440892098500626e-15,200.0 h 40.000000000000014 Z" /></g><g fill="rgb(128,128,128)" fill-opacity="1.0"><path d="M 230.0,100.0 l -2.220446049250313e-15,-100.0 h -20.0 l -2.220446049250313e-15,100.0 h 20.000000000000007 Z" /></g></g><g fill="rgb(255,255,255)" fill-opacity="1.0"><path d="M 180.0,200.0 l -4.440892098500626e-15,-200.0 h -40.0 l -4.440892098500626e-15,200.0 h 40.000000000000014 Z" /></g><g fill="rgb(128,128,128)" fill-opacity="1.0"><path d="M 190.0,100.0 l -2.220446049250313e-15,-100.0 h -20.0 l -2.220446049250313e-15,100.0 h 20.000000000000007 Z" /></g></g><g fill="rgb(255,255,255)" fill-opacity="1.0"><path d="M 140.0,200.0 l -4.440892098500626e-15,-200.0 h -40.0 l -4.440892098500626e-15,200.0 h 40.000000000000014 Z" /></g><g fill="rgb(128,128,128)" fill-opacity="1.0"><path d="M 150.0,100.0 l -2.220446049250313e-15,-100.0 h -20.0 l -2.220446049250313e-15,100.0 h 20.000000000000007 Z" /></g></g><g><g fill="rgb(255,255,255)" fill-opacity="1.0"><path d="M 100.0,200.0 l -4.440892098500626e-15,-200.0 h -40.0 l -4.440892098500626e-15,200.0 h 40.000000000000014 Z" /></g><g fill="rgb(255,255,255)" fill-opacity="1.0"><path d="M 60.0,200.0 l -4.440892098500626e-15,-200.0 h -40.0 l -4.440892098500626e-15,200.0 h 40.000000000000014 Z" /></g><g fill="rgb(128,128,128)" fill-opacity="1.0"><path d="M 70.0,100.0 l -2.220446049250313e-15,-100.0 h -20.0 l -2.220446049250313e-15,100.0 h 20.000000000000007 Z" /></g></g><g fill="rgb(255,255,255)" fill-opacity="1.0"><path d="M 20.000000000000004,200.0 l -4.440892098500626e-15,-200.0 h -40.0 l -4.440892098500626e-15,200.0 h 40.000000000000014 Z" /></g><g fill="rgb(128,128,128)" fill-opacity="1.0"><path d="M 30.0,100.0 l -2.220446049250313e-15,-100.0 h -20.0 l -2.220446049250313e-15,100.0 h 20.000000000000007 Z" /></g></g></g></g></svg>